<?xml version="1.0" standalone="no"?>
<!DOCTYPE svg PUBLIC "-//W3C//DTD SVG 1.1//EN" "http://www.w3.org/Graphics/SVG/1.1/DTD/svg11.dtd">

<svg width="135" height="50" viewBox="0 0 135 50" preserveAspectRatio="none" 
  xmlns="http://www.w3.org/2000/svg"
  xmlns:xlink="http://www.w3.org/1999/xlink">


<polyline points="0.0, 23.214913069713436 0.7988165680473372, 23.13977708673708 1.5976331360946745, 21.070403515768675 2.396449704142012, 17.3252762808867 3.195266272189349, 22.49358403795288 3.994082840236686, 20.29048344448345 4.792899408284024, 20.305032628400383 5.591715976331361, 29.313095356068757 6.390532544378698, 26.193879774325584 7.189349112426036, 33.051694845308184 7.988165680473372, 30.925381713774573 8.78698224852071, 30.73097211071109 9.585798816568047, 31.169916162358625 10.384615384615385, 36.657812441791734 11.183431952662723, 32.203451343333334 11.982248520710058, 34.82356789822137 12.781065088757396, 34.0135876082199 13.579881656804734, 37.59465674369081 14.378698224852071, 35.190543480897375 15.177514792899409, 36.635016534878915 15.976331360946745, 30.670744595165118 16.775147928994084, 35.08314892452006 17.57396449704142, 42.55101394877867 18.37278106508876, 44.116841934386095 19.171597633136095, 50.0 19.970414201183434, 47.91528492167741 20.76923076923077, 44.793617759152454 21.56804733727811, 42.75592866641225 22.366863905325445, 41.39866151517788 23.16568047337278, 41.91759124819722 23.964497041420117, 41.20567619966213 24.763313609467456, 45.90829310887564 25.562130177514792, 44.076138318071486 26.36094674556213, 39.195325681529965 27.159763313609467, 33.34018883883051 27.958579881656807, 41.25193151555659 28.757396449704142, 38.41192914368776 29.55621301775148, 36.19897160549074 30.355029585798817, 38.152382052583924 31.153846153846157, 34.685285974713324 31.95266272189349, 40.23575583881426 32.751479289940825, 40.41473699525166 33.55029585798817, 35.36732582846261 34.349112426035504, 34.07756641120729 35.14792899408284, 26.43273287925331 35.94674556213018, 23.271050390110865 36.74556213017752, 23.07506311472009 37.54437869822485, 26.004922726541828 38.34319526627219, 28.519060525607976 39.142011834319526, 26.17218979175978 39.94082840236687, 24.66927696347277 40.7396449704142, 25.92437929340385 41.53846153846154, 24.42586345596976 42.337278106508876, 20.665625426736316 43.13609467455622, 19.584534230900257 43.93491124260355, 21.94632093043342 44.73372781065089, 17.244824476640115 45.532544378698226, 16.550503155978006 46.33136094674556, 23.43292490949054 47.1301775147929, 23.183054382357952 47.928994082840234, 20.281774095608224 48.72781065088758, 18.94048338075731 49.52662721893491, 21.486859562531794 50.32544378698225, 16.73681527196451 51.124260355029584, 22.124767402470784 51.92307692307693, 22.842852667980974 52.72189349112426, 25.17311454754981 53.5207100591716, 21.0471267663069 54.319526627218934, 20.007925725440348 55.11834319526627, 18.656661315335395 55.91715976331361, 18.162221822845343 56.71597633136094, 16.714126044173057 57.514792899408285, 16.10997030573997 58.31360946745562, 18.51584062783125 59.11242603550296, 19.905248065538792 59.91124260355029, 21.59678842965166 60.710059171597635, 23.43916339136435 61.50887573964497, 24.182067676807353 62.307692307692314, 23.158431332239683 63.10650887573964, 21.739646512139206 63.90532544378698, 22.172544317331973 64.70414201183432, 21.314026266630066 65.50295857988165, 17.956480121963 66.30177514792899, 8.037712552369115 67.10059171597634, 1.4412648781142794 67.89940828402366, 0.0 68.69822485207101, 5.404831897345053 69.49704142011834, 4.475280386648054 70.29585798816568, 1.8122796364480034 71.09467455621302, 3.4563010749739926 71.89349112426036, 4.667927923875208 72.6923076923077, 7.879857690891997 73.49112426035504, 8.272562994746368 74.28994082840237, 9.336436415601131 75.0887573964497, 8.99590283257654 75.88757396449704, 6.6120585942441235 76.68639053254438, 7.3510333328725554 77.48520710059172, 7.433825144671266 78.28402366863905, 8.937082718330625 79.0828402366864, 8.978605804274222 79.88165680473374, 13.747532325522075 80.68047337278107, 11.141692684767534 81.4792899408284, 13.219318272376501 82.27810650887574, 13.502909520066394 83.07692307692308, 17.575401969337534 83.87573964497041, 18.595252795447237 84.67455621301775, 14.277687505116516 85.4733727810651, 15.245284071391854 86.27218934911244, 14.095097995064812 87.07100591715975, 13.53052437561922 87.8698224852071, 11.80631745117521 88.66863905325444, 13.988432156231381 89.46745562130178, 16.3565152051851 90.26627218934911, 21.173233495561455 91.06508875739645, 18.54630049117955 91.8639053254438, 25.973949977262034 92.66272189349112, 26.139982398459527 93.46153846153845, 25.67999593735798 94.2603550295858, 23.549041525052047 95.05917159763314, 22.438951453704885 95.85798816568047, 21.217523959770883 96.65680473372781, 19.361571506745687 97.45562130177515, 8.760150004853397 98.2544378698225, 9.36697758338854 99.05325443786982, 7.780428112033248 99.85207100591715, 8.365673842719662 100.6508875739645, 9.972941360504892 101.44970414201183, 8.081487160368056 102.24852071005917, 14.28246008835525 103.04733727810651, 13.3814877530568 103.84615384615385, 10.135340341372949 104.64497041420118, 11.19657883255253 105.44378698224853, 12.467523639439621 106.24260355029585, 10.431578948309369 107.0414201183432, 12.440784578799867 107.84023668639053, 11.252111282286208 108.63905325443787, 5.728189626159286 109.43786982248521, 8.358003036172411 110.23668639053254, 0.4633841016909031 111.03550295857988, 5.716881962974176 111.83431952662723, 7.328839729236411 112.63313609467457, 8.082374588600839 113.43195266272188, 10.843636841898565 114.23076923076923, 12.360014853005547 115.02958579881657, 11.75742240590357 115.82840236686391, 13.650764275892143 116.62721893491124, 14.522848431960842 117.42603550295858, 18.481355615797913 118.22485207100593, 16.95149137536698 119.02366863905324, 17.391653514753123 119.82248520710058, 16.972207364061447 120.62130177514793, 15.733257691960059 121.42011834319527, 16.23237459593763 122.2189349112426, 19.69206154087275 123.01775147928994, 18.221687550647083 123.81656804733728, 22.968729599513154 124.61538461538463, 24.65737233948294 125.41420118343194, 23.430438768163345 126.21301775147928, 22.365587269354993 127.01183431952663, 24.910626992565525 127.81065088757396, 24.69009879249829 128.60946745562129, 23.696331164768367 129.40828402366864, 20.66567081155954 130.20710059171597, 21.514359760210493 131.0059171597633, 17.70699873141651 131.80473372781066, 14.87945585012441 132.60355029585799, 15.725186925932594 133.40236686390534, 14.314473852187405 134.20118343195267, 17.831071930506447" fill="none" stroke="#32ca5b" stroke-width="1.25"/>

</svg>