<?xml version="1.0" standalone="no"?>
<!DOCTYPE svg PUBLIC "-//W3C//DTD SVG 1.1//EN" "http://www.w3.org/Graphics/SVG/1.1/DTD/svg11.dtd">

<svg width="135" height="50" viewBox="0 0 135 50" preserveAspectRatio="none" 
  xmlns="http://www.w3.org/2000/svg"
  xmlns:xlink="http://www.w3.org/1999/xlink">


<polyline points="0.0, 50.0 0.7988165680473372, 47.35956068778114 1.5976331360946745, 31.406716948191455 2.396449704142012, 36.95290614471726 3.195266272189349, 41.88768463132596 3.994082840236686, 36.065525003083515 4.792899408284024, 34.07863191999061 5.591715976331361, 41.66006992905619 6.390532544378698, 40.0100429453368 7.189349112426036, 40.296586847609156 7.988165680473372, 38.84706175339062 8.78698224852071, 33.878017168923776 9.585798816568047, 32.55418995517374 10.384615384615385, 26.029352742799723 11.183431952662723, 29.125799296210996 11.982248520710058, 29.056071776939547 12.781065088757396, 23.970217331523223 13.579881656804734, 24.809647672048538 14.378698224852071, 21.689733832050656 15.177514792899409, 8.656177551607197 15.976331360946745, 14.399010466277762 16.775147928994084, 16.090228282414458 17.57396449704142, 22.095199728995176 18.37278106508876, 23.50556496536524 19.171597633136095, 27.718863613125748 19.970414201183434, 28.23384211070624 20.76923076923077, 25.38206397582122 21.56804733727811, 23.68151670978584 22.366863905325445, 24.794528718133538 23.16568047337278, 26.22058605994181 23.964497041420117, 24.385193359823916 24.763313609467456, 27.0099448148994 25.562130177514792, 26.046270479614066 26.36094674556213, 27.114054803233778 27.159763313609467, 23.55872688971492 27.958579881656807, 27.317410890240694 28.757396449704142, 25.602786685147237 29.55621301775148, 23.52725118813314 30.355029585798817, 24.313533055243987 31.153846153846157, 24.81784131303117 31.95266272189349, 23.658866552356393 32.751479289940825, 25.506067071742955 33.55029585798817, 25.191135064288638 34.349112426035504, 20.04148133517383 35.14792899408284, 24.805807445383017 35.94674556213018, 24.441454365601977 36.74556213017752, 25.30656877488806 37.54437869822485, 26.306888972659937 38.34319526627219, 28.608718531265353 39.142011834319526, 24.94746050021325 39.94082840236687, 26.75285240566236 40.7396449704142, 25.60600588320358 41.53846153846154, 26.99806481018624 42.337278106508876, 24.18782818599207 43.13609467455622, 24.272614521259282 43.93491124260355, 23.691020934524733 44.73372781065089, 22.588625448326237 45.532544378698226, 21.632438126535032 46.33136094674556, 27.515114680178737 47.1301775147929, 29.117250829998582 47.928994082840234, 20.650924111873106 48.72781065088758, 22.05472039512054 49.52662721893491, 23.351372423780763 50.32544378698225, 23.381292263156492 51.124260355029584, 23.81213382856512 51.92307692307693, 18.202796470375112 52.72189349112426, 16.728284383970145 53.5207100591716, 17.334806785700916 54.319526627218934, 14.749690856131245 55.11834319526627, 18.168512238484688 55.91715976331361, 17.49424505451843 56.71597633136094, 16.036587020560066 57.514792899408285, 18.179170181851408 58.31360946745562, 14.592161526862778 59.11242603550296, 14.26840849284674 59.91124260355029, 15.571613448777713 60.710059171597635, 11.589398045124197 61.50887573964497, 14.95680051939225 62.307692307692314, 8.2081032880895 63.10650887573964, 11.438596627131075 63.90532544378698, 12.934858073467659 64.70414201183432, 16.326257813917646 65.50295857988165, 13.482773190445377 66.30177514792899, 18.97766161485436 67.10059171597634, 22.002238693371115 67.89940828402366, 21.22334950152134 68.69822485207101, 22.425938742864783 69.49704142011834, 21.778215743927625 70.29585798816568, 23.252143018322244 71.09467455621302, 22.478815042023424 71.89349112426036, 21.66825760391975 72.6923076923077, 22.388965019413842 73.49112426035504, 21.38408159415708 74.28994082840237, 23.22625286406725 75.0887573964497, 23.594991463367755 75.88757396449704, 22.964480806553286 76.68639053254438, 24.063697378026895 77.48520710059172, 23.5796352552061 78.28402366863905, 21.883536536448666 79.0828402366864, 20.221821874214797 79.88165680473374, 24.909806910323155 80.68047337278107, 21.44044132091941 81.4792899408284, 24.967147117725517 82.27810650887574, 26.99879144844984 83.07692307692308, 31.509379549682947 83.87573964497041, 33.11239739277533 84.67455621301775, 32.35139136209237 85.4733727810651, 29.18730255455243 86.27218934911244, 29.214339412757003 87.07100591715975, 29.57513856568187 87.8698224852071, 29.049017145960704 88.66863905325444, 29.360342167538008 89.46745562130178, 31.945406721268103 90.26627218934911, 35.89138645923334 91.06508875739645, 29.77021877594128 91.8639053254438, 36.54107147804861 92.66272189349112, 34.433946692463984 93.46153846153845, 31.90750157661619 94.2603550295858, 27.79224580738953 95.05917159763314, 25.000108077265804 95.85798816568047, 28.216556767745093 96.65680473372781, 25.81120491567314 97.45562130177515, 21.548541923277103 98.2544378698225, 17.24576943586872 99.05325443786982, 11.979906938538099 99.85207100591715, 13.587828408456154 100.6508875739645, 14.827752371318379 101.44970414201183, 14.216678203619837 102.24852071005917, 15.284701201274514 103.04733727810651, 13.275322857745905 103.84615384615385, 10.151108455063747 104.64497041420118, 8.794401380286269 105.44378698224853, 9.032704980632012 106.24260355029585, 0.0 107.0414201183432, 4.598826528592924 107.84023668639053, 2.0779044383624927 108.63905325443787, 0.05119875996655559 109.43786982248521, 2.747653657289602 110.23668639053254, 4.6023496330238345 111.03550295857988, 9.402616826420937 111.83431952662723, 8.725119094607566 112.63313609467457, 3.937575934120304 113.43195266272188, 9.660446404564778 114.23076923076923, 11.057362407490364 115.02958579881657, 9.406057410626548 115.82840236686391, 12.610919820419348 116.62721893491124, 15.066464676318297 117.42603550295858, 21.218376645308343 118.22485207100593, 16.94474832519822 119.02366863905324, 18.65763384576427 119.82248520710058, 18.39104037249207 120.62130177514793, 17.548078940790337 121.42011834319527, 14.690218355024024 122.2189349112426, 19.099216132731783 123.01775147928994, 17.521496708129725 123.81656804733728, 23.825033085255825 124.61538461538463, 20.305562127446024 125.41420118343194, 16.988020549939584 126.21301775147928, 15.113218650081004 127.01183431952663, 19.80227867084799 127.81065088757396, 19.001231513392607 128.60946745562129, 17.493270963851536 129.40828402366864, 14.968074052724836 130.20710059171597, 16.120284686780924 131.0059171597633, 12.16019951197623 131.80473372781066, 11.927540429427857 132.60355029585799, 9.156569973211065 133.40236686390534, 10.613615214392674 134.20118343195267, 4.558951314201082" fill="none" stroke="#32ca5b" stroke-width="1.25"/>

</svg>