<?xml version="1.0" standalone="no"?>
<!DOCTYPE svg PUBLIC "-//W3C//DTD SVG 1.1//EN" "http://www.w3.org/Graphics/SVG/1.1/DTD/svg11.dtd">

<svg width="135" height="50" viewBox="0 0 135 50" preserveAspectRatio="none" 
  xmlns="http://www.w3.org/2000/svg"
  xmlns:xlink="http://www.w3.org/1999/xlink">


<polyline points="0.0, 5.6863628398398305 0.7988165680473372, 5.6567748783094425 1.5976331360946745, 0.7240731539069244 2.396449704142012, 3.871956365117674 3.195266272189349, 7.140838786469958 3.994082840236686, 2.7854439907281674 4.792899408284024, 0.24307704036398295 5.591715976331361, 7.029375554892893 6.390532544378698, 2.213674412227233 7.189349112426036, 9.425163416807623 7.988165680473372, 7.4342503623506655 8.78698224852071, 1.3561868512759503 9.585798816568047, 2.6897568134099603 10.384615384615385, 5.822183061548039 11.183431952662723, 4.589074140237499 11.982248520710058, 3.52312663414459 12.781065088757396, 3.5542077727825228 13.579881656804734, 4.767150129388322 14.378698224852071, 3.835351341594105 15.177514792899409, 1.8720264657794632 15.976331360946745, 0.0 16.775147928994084, 4.527152843277728 17.57396449704142, 5.272111140263697 18.37278106508876, 4.26289972655453 19.171597633136095, 5.742036296991253 19.970414201183434, 6.192362631894135 20.76923076923077, 4.4551725868756336 21.56804733727811, 5.160398919066647 22.366863905325445, 3.9153899033130104 23.16568047337278, 6.926602909748623 23.964497041420117, 9.110636661103749 24.763313609467456, 10.314325668608507 25.562130177514792, 9.17308618271791 26.36094674556213, 10.955800313935894 27.159763313609467, 7.360609556719902 27.958579881656807, 8.890561935580639 28.757396449704142, 6.335659650368172 29.55621301775148, 6.67314935799777 30.355029585798817, 7.208546139903013 31.153846153846157, 7.27684798021731 31.95266272189349, 5.787967081631893 32.751479289940825, 7.918574512126769 33.55029585798817, 7.40526013771214 34.349112426035504, 4.451532889791777 35.14792899408284, 6.881885513192795 35.94674556213018, 6.381955566884856 36.74556213017752, 7.089595940155433 37.54437869822485, 7.501281705969172 38.34319526627219, 6.472664649832338 39.142011834319526, 4.1722690433053655 39.94082840236687, 7.235871977159519 40.7396449704142, 6.172961726866142 41.53846153846154, 3.6051807774625995 42.337278106508876, 4.581054706471685 43.13609467455622, 2.3504970354325185 43.93491124260355, 3.628586874930263 44.73372781065089, 2.531222936514492 45.532544378698226, 6.1072978004456004 46.33136094674556, 9.748525176244351 47.1301775147929, 8.162483930392355 47.928994082840234, 11.971427367020475 48.72781065088758, 9.126615162454247 49.52662721893491, 8.219767445765914 50.32544378698225, 8.697406339285239 51.124260355029584, 10.35976920948356 51.92307692307693, 7.93233479239186 52.72189349112426, 8.642042811942513 53.5207100591716, 9.381032501820417 54.319526627218934, 8.556843338261269 55.11834319526627, 5.844628785743791 55.91715976331361, 7.038726731303087 56.71597633136094, 7.116049876934376 57.514792899408285, 6.450700181351733 58.31360946745562, 6.26157993439018 59.11242603550296, 11.488062187152206 59.91124260355029, 11.472582278387648 60.710059171597635, 10.959216157366468 61.50887573964497, 14.123668930561703 62.307692307692314, 14.415676372898432 63.10650887573964, 13.202650982121902 63.90532544378698, 13.572247502604915 64.70414201183432, 15.286968127094122 65.50295857988165, 13.572777916220488 66.30177514792899, 14.144422560331199 67.10059171597634, 15.836136214707347 67.89940828402366, 14.852076904885388 68.69822485207101, 15.283641611419934 69.49704142011834, 14.310638225899499 70.29585798816568, 14.648559096226975 71.09467455621302, 14.784820615994631 71.89349112426036, 14.782211757499597 72.6923076923077, 14.307004342576576 73.49112426035504, 13.939539004851333 74.28994082840237, 15.874378680757614 75.0887573964497, 12.765203616700502 75.88757396449704, 14.717382350559143 76.68639053254438, 14.031238577700627 77.48520710059172, 13.521527008822998 78.28402366863905, 13.734620967898408 79.0828402366864, 13.69826337866867 79.88165680473374, 15.214610777338015 80.68047337278107, 14.470955953927572 81.4792899408284, 16.690285847223674 82.27810650887574, 16.959533620355963 83.07692307692308, 17.909599278980235 83.87573964497041, 19.275067185595 84.67455621301775, 21.705522505876253 85.4733727810651, 21.868524057265176 86.27218934911244, 20.341635145073315 87.07100591715975, 22.429256027565206 87.8698224852071, 26.24867026447053 88.66863905325444, 27.677772146636652 89.46745562130178, 27.702504701993224 90.26627218934911, 32.181820915334484 91.06508875739645, 28.883889190537314 91.8639053254438, 29.083502770231622 92.66272189349112, 30.154398394374006 93.46153846153845, 35.83123053507381 94.2603550295858, 34.72813926940411 95.05917159763314, 34.72081437522522 95.85798816568047, 34.809286636548094 96.65680473372781, 29.962233260604272 97.45562130177515, 32.16301778713889 98.2544378698225, 32.27453451643712 99.05325443786982, 30.418656164348935 99.85207100591715, 31.133784835696765 100.6508875739645, 36.998702628892154 101.44970414201183, 32.21339524977332 102.24852071005917, 38.18976627766328 103.04733727810651, 38.92319247317471 103.84615384615385, 38.85213461414528 104.64497041420118, 36.726466744065405 105.44378698224853, 35.2117227439492 106.24260355029585, 34.9646861847689 107.0414201183432, 36.244305386499484 107.84023668639053, 34.140393279258426 108.63905325443787, 33.57040752685684 109.43786982248521, 31.27257300793684 110.23668639053254, 31.001642242539585 111.03550295857988, 31.04388760441555 111.83431952662723, 28.161037657605025 112.63313609467457, 32.141124854270615 113.43195266272188, 35.212744031494914 114.23076923076923, 37.40322924614576 115.02958579881657, 34.56911504115613 115.82840236686391, 34.899790903278856 116.62721893491124, 38.01609310080215 117.42603550295858, 41.41779874715957 118.22485207100593, 40.563904618925115 119.02366863905324, 40.94367206557452 119.82248520710058, 40.21160268578392 120.62130177514793, 40.439028806999254 121.42011834319527, 38.76522794861936 122.2189349112426, 42.94074515646015 123.01775147928994, 41.4019672880056 123.81656804733728, 45.60810779733922 124.61538461538463, 44.52438523111273 125.41420118343194, 45.18490421690057 126.21301775147928, 47.62384971132306 127.01183431952663, 45.915944900945014 127.81065088757396, 50.0 128.60946745562129, 47.445195234846096 129.40828402366864, 46.45114824580305 130.20710059171597, 47.44837374982783 131.0059171597633, 44.74187354301563 131.80473372781066, 45.11486918614976 132.60355029585799, 44.97821705914475 133.40236686390534, 44.57735361403919 134.20118343195267, 45.14466554008538" fill="none" stroke="#ff3a33" stroke-width="1.25"/>

</svg>