<?xml version="1.0" standalone="no"?>
<!DOCTYPE svg PUBLIC "-//W3C//DTD SVG 1.1//EN" "http://www.w3.org/Graphics/SVG/1.1/DTD/svg11.dtd">

<svg width="135" height="50" viewBox="0 0 135 50" preserveAspectRatio="none" 
  xmlns="http://www.w3.org/2000/svg"
  xmlns:xlink="http://www.w3.org/1999/xlink">


<polyline points="0.0, 34.73371720754894 0.7988165680473372, 29.51370794986988 1.5976331360946745, 28.40650246915098 2.396449704142012, 27.772498459705798 3.195266272189349, 15.18127595398861 3.994082840236686, 10.778511251974225 4.792899408284024, 12.067564693629416 5.591715976331361, 8.786279628456594 6.390532544378698, 7.392222631877263 7.189349112426036, 0.0 7.988165680473372, 9.476429438074112 8.78698224852071, 9.140554022412092 9.585798816568047, 10.849128128116504 10.384615384615385, 10.099033895191344 11.183431952662723, 6.456409746618946 11.982248520710058, 5.273847955280881 12.781065088757396, 7.210294452317613 13.579881656804734, 14.060933780952034 14.378698224852071, 16.53325424030584 15.177514792899409, 15.204172036994294 15.976331360946745, 20.024679808454916 16.775147928994084, 24.147052593877262 17.57396449704142, 26.10220216039493 18.37278106508876, 22.46879666324835 19.171597633136095, 25.397919518706836 19.970414201183434, 25.733576000722557 20.76923076923077, 25.589058055672186 21.56804733727811, 24.320918141878536 22.366863905325445, 25.21121990242325 23.16568047337278, 27.88048693360513 23.964497041420117, 27.546895148629414 24.763313609467456, 28.843839193029186 25.562130177514792, 29.62758692468946 26.36094674556213, 28.76326192073686 27.159763313609467, 22.5182605933964 27.958579881656807, 27.726564815728917 28.757396449704142, 25.929079945659737 29.55621301775148, 27.092747663328453 30.355029585798817, 28.48625135584662 31.153846153846157, 26.971585843626578 31.95266272189349, 27.116261353738626 32.751479289940825, 28.440493984507626 33.55029585798817, 26.588103782654006 34.349112426035504, 21.83365906439715 35.14792899408284, 20.749863194837808 35.94674556213018, 25.050160424713724 36.74556213017752, 17.39785578407392 37.54437869822485, 22.1656758350477 38.34319526627219, 26.505277773661085 39.142011834319526, 22.564037120066732 39.94082840236687, 26.088625790207182 40.7396449704142, 20.630041847992477 41.53846153846154, 19.77834309888532 42.337278106508876, 21.005492456657592 43.13609467455622, 22.795079997184697 43.93491124260355, 23.7489094198525 44.73372781065089, 24.0199249344083 45.532544378698226, 27.046692550565325 46.33136094674556, 29.130334374056243 47.1301775147929, 29.080897414638702 47.928994082840234, 27.814081887511172 48.72781065088758, 31.69063726631697 49.52662721893491, 32.205597219239365 50.32544378698225, 32.591341898197264 51.124260355029584, 33.06604653640097 51.92307692307693, 31.690023926348733 52.72189349112426, 31.732899476178527 53.5207100591716, 28.33742307933625 54.319526627218934, 27.761694648940065 55.11834319526627, 27.226678863884107 55.91715976331361, 25.64197553669872 56.71597633136094, 25.98887463586326 57.514792899408285, 28.882408148334697 58.31360946745562, 29.701544748353438 59.11242603550296, 29.845868215967524 59.91124260355029, 34.88485734571897 60.710059171597635, 37.54818693651636 61.50887573964497, 42.747735973999504 62.307692307692314, 38.652076398118126 63.10650887573964, 36.99645951114063 63.90532544378698, 37.701284133521185 64.70414201183432, 39.882843429269556 65.50295857988165, 38.55361066969508 66.30177514792899, 37.82913906626158 67.10059171597634, 40.00152089058682 67.89940828402366, 40.19693396581439 68.69822485207101, 39.77919015959072 69.49704142011834, 38.90454001350152 70.29585798816568, 39.39502114092622 71.09467455621302, 39.95546161461919 71.89349112426036, 40.36270631426773 72.6923076923077, 41.03974439215342 73.49112426035504, 39.651320413868056 74.28994082840237, 37.81142741887413 75.0887573964497, 38.49498909770242 75.88757396449704, 38.7831549350075 76.68639053254438, 38.172237899332536 77.48520710059172, 37.851863115816606 78.28402366863905, 37.99738061599646 79.0828402366864, 38.565627468353306 79.88165680473374, 40.33089882556032 80.68047337278107, 41.618137925389135 81.4792899408284, 43.27062064404824 82.27810650887574, 44.835060753300816 83.07692307692308, 46.51527316494729 83.87573964497041, 49.26674397472843 84.67455621301775, 45.657524584100265 85.4733727810651, 43.47188186919537 86.27218934911244, 43.25319220791427 87.07100591715975, 44.24673313466288 87.8698224852071, 44.380389340029204 88.66863905325444, 43.857688387036426 89.46745562130178, 44.831351926151456 90.26627218934911, 50.0 91.06508875739645, 39.773005129379854 91.8639053254438, 46.08384472716579 92.66272189349112, 43.997657831936706 93.46153846153845, 42.303339078745985 94.2603550295858, 41.93729496218872 95.05917159763314, 43.47311774113627 95.85798816568047, 42.89228126987588 96.65680473372781, 44.9096865935608 97.45562130177515, 39.8695959131796 98.2544378698225, 37.23554338777469 99.05325443786982, 37.472791516499335 99.85207100591715, 38.56202822178643 100.6508875739645, 38.73359941460343 101.44970414201183, 37.171573503673805 102.24852071005917, 41.28457218935949 103.04733727810651, 42.91426623502204 103.84615384615385, 41.32698974389385 104.64497041420118, 40.555450679359566 105.44378698224853, 41.86561541803954 106.24260355029585, 40.450825516848454 107.0414201183432, 42.43943876862258 107.84023668639053, 39.960404697477266 108.63905325443787, 37.33348876815998 109.43786982248521, 35.10101313524826 110.23668639053254, 35.73841021824678 111.03550295857988, 37.834663966295025 111.83431952662723, 37.270692308643554 112.63313609467457, 35.20875054308086 113.43195266272188, 38.03219218209832 114.23076923076923, 37.21186714059864 115.02958579881657, 36.63499433877503 115.82840236686391, 40.882527959205866 116.62721893491124, 42.11258414698303 117.42603550295858, 47.65458054904945 118.22485207100593, 44.972796343244184 119.02366863905324, 44.182970857043735 119.82248520710058, 42.68677181395619 120.62130177514793, 42.81283399776352 121.42011834319527, 43.99127724849744 122.2189349112426, 44.29528195476749 123.01775147928994, 41.55765036616748 123.81656804733728, 48.05271555839338 124.61538461538463, 49.670910659972044 125.41420118343194, 47.68614408205496 126.21301775147928, 45.467115386958575 127.01183431952663, 47.760079762626425 127.81065088757396, 46.88915246393701 128.60946745562129, 45.10362353009958 129.40828402366864, 43.95186393837999 130.20710059171597, 44.7990251483083 131.0059171597633, 41.295848605823686 131.80473372781066, 40.30865451271109 132.60355029585799, 38.13955902281616 133.40236686390534, 37.55685375073764 134.20118343195267, 38.621246372529335" fill="none" stroke="#ff3a33" stroke-width="1.25"/>

</svg>