<?xml version="1.0" standalone="no"?>
<!DOCTYPE svg PUBLIC "-//W3C//DTD SVG 1.1//EN" "http://www.w3.org/Graphics/SVG/1.1/DTD/svg11.dtd">

<svg width="135" height="50" viewBox="0 0 135 50" preserveAspectRatio="none" 
  xmlns="http://www.w3.org/2000/svg"
  xmlns:xlink="http://www.w3.org/1999/xlink">


<polyline points="0.0, 44.86953792352877 0.7988165680473372, 45.77697128030451 1.5976331360946745, 43.17872623756361 2.396449704142012, 42.726381042557634 3.195266272189349, 46.512664509678274 3.994082840236686, 44.3159203569592 4.792899408284024, 44.28667361911967 5.591715976331361, 48.52926016418425 6.390532544378698, 46.8006673268032 7.189349112426036, 50.0 7.988165680473372, 49.4103868898606 8.78698224852071, 47.44051012101533 9.585798816568047, 46.63029422936519 10.384615384615385, 46.666354141772 11.183431952662723, 46.23214891547096 11.982248520710058, 46.446317251116085 12.781065088757396, 44.52286599487443 13.579881656804734, 45.40316645543452 14.378698224852071, 43.3712392666758 15.177514792899409, 42.07625247583483 15.976331360946745, 41.669065070221066 16.775147928994084, 43.39151753900035 17.57396449704142, 44.93414485615245 18.37278106508876, 45.755194465165346 19.171597633136095, 47.89965419725005 19.970414201183434, 47.21519662564065 20.76923076923077, 45.45284598733824 21.56804733727811, 44.86116222926628 22.366863905325445, 43.85080624401548 23.16568047337278, 42.93480089761418 23.964497041420117, 42.60823655152626 24.763313609467456, 44.80171765280367 25.562130177514792, 43.02771880949711 26.36094674556213, 42.603637881382625 27.159763313609467, 41.13351338120168 27.958579881656807, 42.032272840187325 28.757396449704142, 40.780750370462506 29.55621301775148, 38.180462279975295 30.355029585798817, 36.57733775268523 31.153846153846157, 36.605382394593676 31.95266272189349, 35.38915612610932 32.751479289940825, 36.555153854514614 33.55029585798817, 38.17951663328858 34.349112426035504, 37.23341099180792 35.14792899408284, 38.041731537495096 35.94674556213018, 36.933915514187234 36.74556213017752, 36.86759766736751 37.54437869822485, 37.04660000537782 38.34319526627219, 38.15251656930752 39.142011834319526, 37.914049846762936 39.94082840236687, 39.18057306983856 40.7396449704142, 39.74912632672423 41.53846153846154, 38.399879450062045 42.337278106508876, 39.28153664353215 43.13609467455622, 38.52694707013965 43.93491124260355, 39.214303497262435 44.73372781065089, 37.63757274574246 45.532544378698226, 36.87331710693337 46.33136094674556, 39.40107160191749 47.1301775147929, 39.663899067812544 47.928994082840234, 38.701861037257935 48.72781065088758, 40.4547533924044 49.52662721893491, 40.86089594139457 50.32544378698225, 38.132435961503646 51.124260355029584, 40.24613506126638 51.92307692307693, 37.75351493350206 52.72189349112426, 37.3283507755538 53.5207100591716, 35.67980207188749 54.319526627218934, 36.1237496621783 55.11834319526627, 35.72619165843356 55.91715976331361, 36.25903700223476 56.71597633136094, 37.000890917134946 57.514792899408285, 37.280138144040954 58.31360946745562, 36.52534450620584 59.11242603550296, 36.56902675015996 59.91124260355029, 37.42850576143932 60.710059171597635, 38.12015554244226 61.50887573964497, 39.520187040684895 62.307692307692314, 38.40084899428818 63.10650887573964, 37.42986561118812 63.90532544378698, 37.4750951760092 64.70414201183432, 37.662397031658976 65.50295857988165, 34.169532915154306 66.30177514792899, 35.39888237461189 67.10059171597634, 35.236571122284424 67.89940828402366, 35.81092818433434 68.69822485207101, 36.63837531029095 69.49704142011834, 35.86469348737761 70.29585798816568, 35.10127600070163 71.09467455621302, 33.437709386307034 71.89349112426036, 32.1664440927111 72.6923076923077, 34.25902847542758 73.49112426035504, 33.351014513834585 74.28994082840237, 35.17066127223221 75.0887573964497, 35.17837627267934 75.88757396449704, 35.13787122622386 76.68639053254438, 36.579385972006136 77.48520710059172, 36.0072167021748 78.28402366863905, 35.796061128492774 79.0828402366864, 35.415466729491676 79.88165680473374, 37.33077051782646 80.68047337278107, 36.92468990633891 81.4792899408284, 36.87537182053166 82.27810650887574, 38.08731752738036 83.07692307692308, 39.66243578405498 83.87573964497041, 39.545530333622445 84.67455621301775, 38.66125192927864 85.4733727810651, 37.39525085489645 86.27218934911244, 37.12907579223915 87.07100591715975, 37.696656712589636 87.8698224852071, 37.73955055891806 88.66863905325444, 38.27872687942999 89.46745562130178, 39.65704246654849 90.26627218934911, 42.95993491905825 91.06508875739645, 39.50134557920922 91.8639053254438, 43.702539697548666 92.66272189349112, 43.05639491514704 93.46153846153845, 42.745301190124586 94.2603550295858, 41.11455341850785 95.05917159763314, 41.03185111930605 95.85798816568047, 41.560388274057935 96.65680473372781, 39.8879168529348 97.45562130177515, 33.09844406971767 98.2544378698225, 26.75802073275352 99.05325443786982, 24.78538141564495 99.85207100591715, 22.531184651265608 100.6508875739645, 23.78098270059123 101.44970414201183, 20.80619327723765 102.24852071005917, 23.231625330870102 103.04733727810651, 18.373481240423004 103.84615384615385, 7.048093692574739 104.64497041420118, 3.192425031165719 105.44378698224853, 0.42494799465252076 106.24260355029585, 0.621210978609844 107.0414201183432, 0.9955713036357003 107.84023668639053, 0.899448539928874 108.63905325443787, 0.0 109.43786982248521, 0.3062752878357758 110.23668639053254, 3.018614180113903 111.03550295857988, 6.1355916213599295 111.83431952662723, 6.532023568811293 112.63313609467457, 9.361451753931956 113.43195266272188, 13.095750452986495 114.23076923076923, 13.180791329949662 115.02958579881657, 11.16228738676694 115.82840236686391, 14.184445401918033 116.62721893491124, 14.015830666271459 117.42603550295858, 17.209407719012678 118.22485207100593, 16.557450187794075 119.02366863905324, 17.1397027784549 119.82248520710058, 16.811312558988607 120.62130177514793, 15.909727379203742 121.42011834319527, 16.86953432979523 122.2189349112426, 18.531175307724496 123.01775147928994, 18.812628232260145 123.81656804733728, 20.421922709648815 124.61538461538463, 18.499889041216118 125.41420118343194, 18.00112100659511 126.21301775147928, 16.19779991568964 127.01183431952663, 18.701924290175416 127.81065088757396, 17.064192001893904 128.60946745562129, 17.168370803528372 129.40828402366864, 17.215549022543 130.20710059171597, 17.414740024439055 131.0059171597633, 14.483152568213287 131.80473372781066, 15.33941213244185 132.60355029585799, 15.993303436816886 133.40236686390534, 17.104005206466752 134.20118343195267, 16.760320223204538" fill="none" stroke="#32ca5b" stroke-width="1.25"/>

</svg>