<?xml version="1.0" standalone="no"?>
<!DOCTYPE svg PUBLIC "-//W3C//DTD SVG 1.1//EN" "http://www.w3.org/Graphics/SVG/1.1/DTD/svg11.dtd">

<svg width="135" height="50" viewBox="0 0 135 50" preserveAspectRatio="none" 
  xmlns="http://www.w3.org/2000/svg"
  xmlns:xlink="http://www.w3.org/1999/xlink">


<polyline points="0.0, 32.15790155442892 0.7988165680473372, 11.434676052418615 1.5976331360946745, 0.0 2.396449704142012, 7.129610330868292 3.195266272189349, 14.514972894732209 3.994082840236686, 14.37424972966292 4.792899408284024, 11.352903920929498 5.591715976331361, 20.801919832133194 6.390532544378698, 17.87521308808426 7.189349112426036, 24.865415045997512 7.988165680473372, 26.060568435150323 8.78698224852071, 26.994002651729843 9.585798816568047, 22.963615880906886 10.384615384615385, 26.04586027088331 11.183431952662723, 24.014952853369316 11.982248520710058, 23.360704848922282 12.781065088757396, 19.120422104538363 13.579881656804734, 21.794403824079982 14.378698224852071, 23.995064320758164 15.177514792899409, 20.635201834607468 15.976331360946745, 23.64626996535186 16.775147928994084, 21.351177408890297 17.57396449704142, 24.53882527475145 18.37278106508876, 23.82381603757196 19.171597633136095, 25.064693672787293 19.970414201183434, 29.643604298838568 20.76923076923077, 23.550751802973956 21.56804733727811, 18.939455360615817 22.366863905325445, 16.285230117662632 23.16568047337278, 18.901777486425736 23.964497041420117, 20.424652976973757 24.763313609467456, 22.214232860027895 25.562130177514792, 20.06731356991761 26.36094674556213, 19.503451866172313 27.159763313609467, 21.17070975352653 27.958579881656807, 22.47899364524439 28.757396449704142, 18.077068329805492 29.55621301775148, 19.198171198956242 30.355029585798817, 17.493572051026636 31.153846153846157, 7.616140253408925 31.95266272189349, 13.647248181515792 32.751479289940825, 15.496893698547328 33.55029585798817, 13.597593056485325 34.349112426035504, 4.661920233933105 35.14792899408284, 10.691062417854198 35.94674556213018, 15.442101425814592 36.74556213017752, 19.32760068742188 37.54437869822485, 17.83968464967138 38.34319526627219, 21.142929553488173 39.142011834319526, 18.112079574055414 39.94082840236687, 22.088440562271504 40.7396449704142, 20.19327775368106 41.53846153846154, 18.21447493337267 42.337278106508876, 19.186076764937088 43.13609467455622, 19.068423804437327 43.93491124260355, 18.29552649763654 44.73372781065089, 17.749954039652657 45.532544378698226, 21.282499571760223 46.33136094674556, 32.12307957630841 47.1301775147929, 30.215404029627145 47.928994082840234, 28.437393346198387 48.72781065088758, 30.002287219208572 49.52662721893491, 30.853400971986574 50.32544378698225, 28.350213720782797 51.124260355029584, 30.295935067869777 51.92307692307693, 28.778482180158456 52.72189349112426, 29.281085691230608 53.5207100591716, 28.338094752146155 54.319526627218934, 27.720379720767458 55.11834319526627, 24.810186920887457 55.91715976331361, 21.115010824108403 56.71597633136094, 22.193678503368165 57.514792899408285, 22.946433908685187 58.31360946745562, 21.00866138292577 59.11242603550296, 18.425309177664737 59.91124260355029, 22.06792480505292 60.710059171597635, 22.57452317459427 61.50887573964497, 24.19101364967458 62.307692307692314, 23.040628614873096 63.10650887573964, 24.132701340750227 63.90532544378698, 23.076567259328737 64.70414201183432, 21.47719522543692 65.50295857988165, 15.610456033349768 66.30177514792899, 19.515358441019835 67.10059171597634, 17.728034885741206 67.89940828402366, 16.16180535572631 68.69822485207101, 16.914410311533054 69.49704142011834, 13.377296151252963 70.29585798816568, 13.063081764826412 71.09467455621302, 13.11744786636331 71.89349112426036, 11.801927756777113 72.6923076923077, 15.142695983070178 73.49112426035504, 11.663499419811352 74.28994082840237, 9.683576467170118 75.0887573964497, 6.618737425320094 75.88757396449704, 7.771799660144894 76.68639053254438, 8.911395116287665 77.48520710059172, 7.140953272035924 78.28402366863905, 4.259877472679495 79.0828402366864, 6.395705687319123 79.88165680473374, 12.6407645326063 80.68047337278107, 10.942978137559612 81.4792899408284, 14.765840900693266 82.27810650887574, 19.19399074280435 83.07692307692308, 24.43861188144007 83.87573964497041, 29.70780717019877 84.67455621301775, 25.856694268181453 85.4733727810651, 24.69867257323392 86.27218934911244, 27.07934703936633 87.07100591715975, 27.452719536210125 87.8698224852071, 25.167721311845533 88.66863905325444, 24.484909899428843 89.46745562130178, 24.999845261616915 90.26627218934911, 33.0212255913124 91.06508875739645, 24.42224088798933 91.8639053254438, 29.71857445444896 92.66272189349112, 20.171546764909763 93.46153846153845, 18.18736315173777 94.2603550295858, 20.441480024375846 95.05917159763314, 21.87186228468794 95.85798816568047, 24.004675081878815 96.65680473372781, 24.479412110356353 97.45562130177515, 19.526399329992895 98.2544378698225, 17.339477624920406 99.05325443786982, 17.354081704478137 99.85207100591715, 19.773681262847553 100.6508875739645, 22.357992108684368 101.44970414201183, 21.587322724226684 102.24852071005917, 25.402695818336145 103.04733727810651, 24.617702158234835 103.84615384615385, 28.492219068014652 104.64497041420118, 27.08241251630789 105.44378698224853, 30.752901890792483 106.24260355029585, 29.528303043482783 107.0414201183432, 30.53082979869052 107.84023668639053, 29.229666922078707 108.63905325443787, 17.607128610729255 109.43786982248521, 22.09387946460845 110.23668639053254, 21.331371647468604 111.03550295857988, 21.208268233853186 111.83431952662723, 18.59843386898266 112.63313609467457, 14.40819831871259 113.43195266272188, 21.234691083284254 114.23076923076923, 29.78670816539798 115.02958579881657, 28.292083080087515 115.82840236686391, 32.250473633726024 116.62721893491124, 34.34767878456526 117.42603550295858, 44.087517579713 118.22485207100593, 41.77604460051374 119.02366863905324, 40.31039979883083 119.82248520710058, 39.559532407381646 120.62130177514793, 39.61490050489606 121.42011834319527, 37.43621311092464 122.2189349112426, 43.48711864753628 123.01775147928994, 43.91864089829893 123.81656804733728, 50.0 124.61538461538463, 45.06204956234592 125.41420118343194, 41.642901457105204 126.21301775147928, 39.12464576463188 127.01183431952663, 42.84888716354838 127.81065088757396, 43.1643726521517 128.60946745562129, 41.895539585739364 129.40828402366864, 40.42217164295019 130.20710059171597, 38.27979326155993 131.0059171597633, 34.41242986455343 131.80473372781066, 32.52589372233236 132.60355029585799, 34.81780058951237 133.40236686390534, 31.42941061021173 134.20118343195267, 29.887418539685306" fill="none" stroke="#32ca5b" stroke-width="1.25"/>

</svg>