<?xml version="1.0" standalone="no"?>
<!DOCTYPE svg PUBLIC "-//W3C//DTD SVG 1.1//EN" "http://www.w3.org/Graphics/SVG/1.1/DTD/svg11.dtd">

<svg width="135" height="50" viewBox="0 0 135 50" preserveAspectRatio="none" 
  xmlns="http://www.w3.org/2000/svg"
  xmlns:xlink="http://www.w3.org/1999/xlink">


<polyline points="0.0, 43.75865029994721 0.7988165680473372, 44.034074198762944 1.5976331360946745, 42.42681415484441 2.396449704142012, 43.292322630084904 3.195266272189349, 46.57405981756118 3.994082840236686, 44.95665135903738 4.792899408284024, 44.33161632677658 5.591715976331361, 48.127298977666314 6.390532544378698, 47.61797798528652 7.189349112426036, 50.0 7.988165680473372, 46.494365183554116 8.78698224852071, 44.42582164297447 9.585798816568047, 44.49983485240113 10.384615384615385, 44.83704351008228 11.183431952662723, 42.70225538249649 11.982248520710058, 42.853166687676094 12.781065088757396, 42.460098047702694 13.579881656804734, 44.31260695220592 14.378698224852071, 44.15388797790593 15.177514792899409, 41.501307875463326 15.976331360946745, 40.79528561718997 16.775147928994084, 39.59760012133829 17.57396449704142, 37.19587948627097 18.37278106508876, 37.386608538300386 19.171597633136095, 38.739350625136325 19.970414201183434, 37.991742952262705 20.76923076923077, 34.68781962993799 21.56804733727811, 35.63746752946279 22.366863905325445, 33.899589169924596 23.16568047337278, 30.275092419839982 23.964497041420117, 28.651682240419124 24.763313609467456, 30.953413402816565 25.562130177514792, 25.11997700333442 26.36094674556213, 28.49156950373539 27.159763313609467, 29.11029250926344 27.958579881656807, 30.38729315249804 28.757396449704142, 29.048251265223435 29.55621301775148, 27.856972985648813 30.355029585798817, 29.34768657325857 31.153846153846157, 29.203066745624934 31.95266272189349, 23.927294866844242 32.751479289940825, 26.986547800258887 33.55029585798817, 30.661661561685815 34.349112426035504, 25.93828640100731 35.14792899408284, 26.157807356631572 35.94674556213018, 27.51564090694053 36.74556213017752, 30.106894563771576 37.54437869822485, 30.185615597658373 38.34319526627219, 29.509460100759604 39.142011834319526, 29.766966400301698 39.94082840236687, 30.3111846441447 40.7396449704142, 29.73808579952662 41.53846153846154, 30.38603257419207 42.337278106508876, 31.18329543142454 43.13609467455622, 32.05036909952648 43.93491124260355, 32.36258293675644 44.73372781065089, 32.32627427426126 45.532544378698226, 32.42416919856403 46.33136094674556, 33.323943521124896 47.1301775147929, 33.0103023578332 47.928994082840234, 33.05407921426023 48.72781065088758, 35.16584516053681 49.52662721893491, 35.29712458634928 50.32544378698225, 35.89846034747362 51.124260355029584, 36.130351425193666 51.92307692307693, 34.445376669006436 52.72189349112426, 35.01801438112016 53.5207100591716, 35.3354994675503 54.319526627218934, 35.43009845254204 55.11834319526627, 33.78488740616636 55.91715976331361, 34.25937843394745 56.71597633136094, 33.99256722697956 57.514792899408285, 35.29933438364758 58.31360946745562, 33.42126554907654 59.11242603550296, 31.91966652866033 59.91124260355029, 32.931088709758875 60.710059171597635, 32.978739071687585 61.50887573964497, 33.99669700286545 62.307692307692314, 34.47548009459294 63.10650887573964, 34.96811839207368 63.90532544378698, 34.283107045243696 64.70414201183432, 34.89316436377924 65.50295857988165, 33.72204346547725 66.30177514792899, 35.52711001252894 67.10059171597634, 37.37408758374468 67.89940828402366, 36.717526274130925 68.69822485207101, 37.46943194852159 69.49704142011834, 37.1450952004094 70.29585798816568, 37.54455540878612 71.09467455621302, 37.686882660775275 71.89349112426036, 36.98008018557431 72.6923076923077, 37.10632542531831 73.49112426035504, 36.967946347718325 74.28994082840237, 36.95762629054821 75.0887573964497, 37.663522435529934 75.88757396449704, 37.44666638561427 76.68639053254438, 37.89924069733916 77.48520710059172, 37.26278609086424 78.28402366863905, 36.27948598548918 79.0828402366864, 36.68040142786577 79.88165680473374, 39.07441918585769 80.68047337278107, 37.92580623572853 81.4792899408284, 38.249458335022126 82.27810650887574, 39.566103970583995 83.07692307692308, 39.82364243563129 83.87573964497041, 40.032725118200425 84.67455621301775, 40.78822943829285 85.4733727810651, 40.24728413018085 86.27218934911244, 39.40323737593403 87.07100591715975, 40.20408711483973 87.8698224852071, 39.817308671296786 88.66863905325444, 40.21034922056982 89.46745562130178, 40.125979780476314 90.26627218934911, 43.15828779722029 91.06508875739645, 39.99323102257933 91.8639053254438, 42.9867162376026 92.66272189349112, 42.517177863385854 93.46153846153845, 42.417586580247885 94.2603550295858, 41.57472164258293 95.05917159763314, 42.077719032790206 95.85798816568047, 42.0404650975073 96.65680473372781, 41.80115728583744 97.45562130177515, 39.375000592913636 98.2544378698225, 36.730914373333455 99.05325443786982, 35.76442476686522 99.85207100591715, 35.861214067630044 100.6508875739645, 37.96140798373898 101.44970414201183, 36.479208386006526 102.24852071005917, 38.61432012140301 103.04733727810651, 38.8570383629305 103.84615384615385, 34.52301040087114 104.64497041420118, 34.59051176917782 105.44378698224853, 30.68583865282275 106.24260355029585, 28.431999636192995 107.0414201183432, 32.71181991162484 107.84023668639053, 31.93375090283605 108.63905325443787, 30.893265399702674 109.43786982248521, 32.80917843875006 110.23668639053254, 31.675011395350193 111.03550295857988, 31.330607263629766 111.83431952662723, 30.628803498523578 112.63313609467457, 30.959316793784055 113.43195266272188, 30.621432406744788 114.23076923076923, 29.47673558184925 115.02958579881657, 30.240538934054396 115.82840236686391, 32.60603750821047 116.62721893491124, 30.32093060041174 117.42603550295858, 33.07768900199775 118.22485207100593, 28.74501848401179 119.02366863905324, 25.021802214899637 119.82248520710058, 26.30837986688668 120.62130177514793, 23.791108838037424 121.42011834319527, 13.393372087821707 122.2189349112426, 12.26109581566332 123.01775147928994, 9.574962618992574 123.81656804733728, 16.351948364476844 124.61538461538463, 7.808489664488237 125.41420118343194, 0.8112721519978562 126.21301775147928, 2.0898133038521878 127.01183431952663, 4.8852205538388604 127.81065088757396, 2.880774703005665 128.60946745562129, 3.734271238108749 129.40828402366864, 1.099058708530422 130.20710059171597, 0.0 131.0059171597633, 6.072142315146492 131.80473372781066, 6.2221449134994495 132.60355029585799, 6.84452698394524 133.40236686390534, 8.31362774748314 134.20118343195267, 9.600869660035247" fill="none" stroke="#32ca5b" stroke-width="1.25"/>

</svg>