<?xml version="1.0" standalone="no"?>
<!DOCTYPE svg PUBLIC "-//W3C//DTD SVG 1.1//EN" "http://www.w3.org/Graphics/SVG/1.1/DTD/svg11.dtd">

<svg width="135" height="50" viewBox="0 0 135 50" preserveAspectRatio="none" 
  xmlns="http://www.w3.org/2000/svg"
  xmlns:xlink="http://www.w3.org/1999/xlink">


<polyline points="0.0, 50.0 0.7988165680473372, 43.665189778183965 1.5976331360946745, 42.12776767870554 2.396449704142012, 43.02708518258323 3.195266272189349, 46.64148053378617 3.994082840236686, 44.610065330898294 4.792899408284024, 42.7697158582309 5.591715976331361, 46.28113741598361 6.390532544378698, 44.12606112299108 7.189349112426036, 43.275432823461266 7.988165680473372, 38.86669181157395 8.78698224852071, 38.20080213950588 9.585798816568047, 37.86330285474765 10.384615384615385, 36.43381143180742 11.183431952662723, 33.65709905674929 11.982248520710058, 29.98509124879097 12.781065088757396, 26.929425885302187 13.579881656804734, 27.005185874957455 14.378698224852071, 27.593693289533384 15.177514792899409, 26.15086830727223 15.976331360946745, 23.732559961274102 16.775147928994084, 28.80744163669146 17.57396449704142, 31.084118434300667 18.37278106508876, 27.755536080100967 19.171597633136095, 32.00771175505338 19.970414201183434, 28.517267749114712 20.76923076923077, 31.059863470038806 21.56804733727811, 27.382421391343748 22.366863905325445, 23.596941976825004 23.16568047337278, 28.837885492541027 23.964497041420117, 28.257699284589282 24.763313609467456, 27.221315734712093 25.562130177514792, 9.730722267244147 26.36094674556213, 7.61655602459176 27.159763313609467, 4.292539168964187 27.958579881656807, 6.349859438018786 28.757396449704142, 10.003005485223701 29.55621301775148, 11.53663172936754 30.355029585798817, 11.3267455997549 31.153846153846157, 10.073155189723924 31.95266272189349, 7.709709135224112 32.751479289940825, 6.516009267629194 33.55029585798817, 2.4712705527958545 34.349112426035504, 0.0 35.14792899408284, 6.5475583022211445 35.94674556213018, 11.101340810633 36.74556213017752, 9.0884545341203 37.54437869822485, 11.10253397770181 38.34319526627219, 11.888980527189926 39.142011834319526, 14.06409216304576 39.94082840236687, 15.131104029481518 40.7396449704142, 15.230876442170608 41.53846153846154, 16.331822849363803 42.337278106508876, 22.634121458319264 43.13609467455622, 22.839802432283523 43.93491124260355, 23.31567759490268 44.73372781065089, 23.053468468101762 45.532544378698226, 22.858942461833433 46.33136094674556, 24.715965039464162 47.1301775147929, 22.845034591620813 47.928994082840234, 22.435925054686834 48.72781065088758, 22.82675267064109 49.52662721893491, 22.312650587740457 50.32544378698225, 22.09823958267624 51.124260355029584, 21.924147557714655 51.92307692307693, 20.953829065035347 52.72189349112426, 19.51446434982069 53.5207100591716, 21.42864420318209 54.319526627218934, 19.18639480371513 55.11834319526627, 20.169790383680127 55.91715976331361, 18.46298869387113 56.71597633136094, 18.029324163299645 57.514792899408285, 17.357908716302724 58.31360946745562, 16.96107489711222 59.11242603550296, 17.33143487818036 59.91124260355029, 18.18866683243887 60.710059171597635, 20.317520163336045 61.50887573964497, 21.904214350205105 62.307692307692314, 22.796351302702845 63.10650887573964, 22.695183127183814 63.90532544378698, 17.173410782907247 64.70414201183432, 19.237627190516527 65.50295857988165, 20.472191495881862 66.30177514792899, 22.106413050159603 67.10059171597634, 23.60896908950205 67.89940828402366, 24.010953338666567 68.69822485207101, 23.93156478578724 69.49704142011834, 23.276807827884486 70.29585798816568, 23.694676713359637 71.09467455621302, 23.313199000015725 71.89349112426036, 22.72480928297765 72.6923076923077, 19.14757128246517 73.49112426035504, 19.889380052140538 74.28994082840237, 20.830541246519253 75.0887573964497, 20.068439248972414 75.88757396449704, 20.333740349069533 76.68639053254438, 20.835592281331067 77.48520710059172, 19.594833558636335 78.28402366863905, 21.82511073129957 79.0828402366864, 21.716232374179516 79.88165680473374, 25.456403993923455 80.68047337278107, 23.82869543334866 81.4792899408284, 26.0064440748451 82.27810650887574, 28.706657655474928 83.07692307692308, 31.695382465998133 83.87573964497041, 33.22913390986429 84.67455621301775, 32.69679451671537 85.4733727810651, 29.714671532808218 86.27218934911244, 22.425298072750294 87.07100591715975, 26.646490252640298 87.8698224852071, 24.8137891023419 88.66863905325444, 25.174693186207755 89.46745562130178, 26.08268628120281 90.26627218934911, 29.67927690832644 91.06508875739645, 24.21161414143879 91.8639053254438, 29.499973940326296 92.66272189349112, 28.530052076233414 93.46153846153845, 26.330408256785702 94.2603550295858, 22.53568632463184 95.05917159763314, 27.177887415247664 95.85798816568047, 26.93014609448173 96.65680473372781, 25.139764124572306 97.45562130177515, 21.77273486193328 98.2544378698225, 21.417273784559203 99.05325443786982, 20.704861209887287 99.85207100591715, 20.615579858607898 100.6508875739645, 24.250553326421343 101.44970414201183, 24.319396940031318 102.24852071005917, 26.186389658845748 103.04733727810651, 23.194247410627952 103.84615384615385, 24.603105129658392 104.64497041420118, 22.027319375391066 105.44378698224853, 22.711014661346134 106.24260355029585, 21.72324072293818 107.0414201183432, 21.344895890959574 107.84023668639053, 20.165215870643436 108.63905325443787, 17.853598399228648 109.43786982248521, 18.00090128624778 110.23668639053254, 17.141993365135182 111.03550295857988, 15.638106204290311 111.83431952662723, 17.481259638021402 112.63313609467457, 16.26065411178254 113.43195266272188, 20.811115085269225 114.23076923076923, 20.586277747579114 115.02958579881657, 19.928938699771674 115.82840236686391, 23.940073358226904 116.62721893491124, 25.239120057559283 117.42603550295858, 30.19957177406069 118.22485207100593, 26.0763017645174 119.02366863905324, 27.4251282230015 119.82248520710058, 27.949399924702917 120.62130177514793, 26.344075364740732 121.42011834319527, 25.826392683571992 122.2189349112426, 27.441570127263727 123.01775147928994, 26.306117044505896 123.81656804733728, 31.059258250385575 124.61538461538463, 28.186376209759057 125.41420118343194, 24.788455747915584 126.21301775147928, 20.622765790801992 127.01183431952663, 23.21237006194764 127.81065088757396, 22.25249481368107 128.60946745562129, 20.882632792740395 129.40828402366864, 19.875556538637948 130.20710059171597, 20.212904746587608 131.0059171597633, 14.223899525104528 131.80473372781066, 13.673941212370924 132.60355029585799, 16.22808906215541 133.40236686390534, 16.33811506556078 134.20118343195267, 15.125628534674036" fill="none" stroke="#32ca5b" stroke-width="1.25"/>

</svg>