<?xml version="1.0" standalone="no"?>
<!DOCTYPE svg PUBLIC "-//W3C//DTD SVG 1.1//EN" "http://www.w3.org/Graphics/SVG/1.1/DTD/svg11.dtd">

<svg width="135" height="50" viewBox="0 0 135 50" preserveAspectRatio="none" 
  xmlns="http://www.w3.org/2000/svg"
  xmlns:xlink="http://www.w3.org/1999/xlink">


<polyline points="0.0, 5.598185666034485 0.7988165680473372, 34.36079765459147 1.5976331360946745, 6.196017657899051 2.396449704142012, 28.141416736903068 3.195266272189349, 48.15670115775234 3.994082840236686, 26.576778880957303 4.792899408284024, 21.045000669013746 5.591715976331361, 39.77022131327934 6.390532544378698, 10.024616077643124 7.189349112426036, 50.0 7.988165680473372, 30.491543251472393 8.78698224852071, 5.420219009382174 9.585798816568047, 17.431658787002263 10.384615384615385, 19.900100836148244 11.183431952662723, 24.770523506163578 11.982248520710058, 18.860874694713264 12.781065088757396, 23.70035339702438 13.579881656804734, 36.01432678194055 14.378698224852071, 23.99660504203084 15.177514792899409, 26.99618438233795 15.976331360946745, 10.966814177554744 16.775147928994084, 28.030986920425484 17.57396449704142, 28.677456723984907 18.37278106508876, 33.685901311312016 19.171597633136095, 36.470709863384705 19.970414201183434, 27.47344008673708 20.76923076923077, 31.053185409835955 21.56804733727811, 23.496708247765973 22.366863905325445, 26.341153846330318 23.16568047337278, 25.748808118473644 23.964497041420117, 21.153954732934935 24.763313609467456, 28.210485292237493 25.562130177514792, 25.302636346525066 26.36094674556213, 44.825899994300634 27.159763313609467, 10.792227217820665 27.958579881656807, 24.332061730169617 28.757396449704142, 24.887785446115853 29.55621301775148, 16.644889899703198 30.355029585798817, 25.645464788961696 31.153846153846157, 27.933075853386512 31.95266272189349, 26.612027089689715 32.751479289940825, 30.55748422829941 33.55029585798817, 26.72495888145435 34.349112426035504, 17.76825703571045 35.14792899408284, 30.327028936114854 35.94674556213018, 22.61859007761265 36.74556213017752, 26.86821518465536 37.54437869822485, 22.271039358271327 38.34319526627219, 22.72500879231086 39.142011834319526, 17.999154909163778 39.94082840236687, 31.956354375063178 40.7396449704142, 24.005996942489187 41.53846153846154, 26.03248587536941 42.337278106508876, 23.675575630600704 43.13609467455622, 20.4815740915186 43.93491124260355, 24.064700834324928 44.73372781065089, 15.884470864597178 45.532544378698226, 19.43247660149316 46.33136094674556, 25.767963628115503 47.1301775147929, 0.0 47.928994082840234, 22.65172181158592 48.72781065088758, 17.340147591093523 49.52662721893491, 7.695468140534278 50.32544378698225, 18.430740359718428 51.124260355029584, 35.73343870806071 51.92307692307693, 20.861227540063602 52.72189349112426, 17.474838630520924 53.5207100591716, 16.661489573849366 54.319526627218934, 19.12356030469198 55.11834319526627, 15.98988388121494 55.91715976331361, 17.831082207697303 56.71597633136094, 18.994053798450267 57.514792899408285, 18.513957000349354 58.31360946745562, 18.846838325373174 59.11242603550296, 25.362705172210493 59.91124260355029, 21.903769350378152 60.710059171597635, 20.946517747370827 61.50887573964497, 18.443449410648608 62.307692307692314, 18.698145063748868 63.10650887573964, 14.284015840503587 63.90532544378698, 19.32838075322987 64.70414201183432, 22.824909695562024 65.50295857988165, 19.338858260317046 66.30177514792899, 19.277345134644687 67.10059171597634, 22.49246236337689 67.89940828402366, 18.040988278525294 68.69822485207101, 20.463473252887738 69.49704142011834, 18.08911914387389 70.29585798816568, 17.270564106870292 71.09467455621302, 20.66696615585614 71.89349112426036, 17.354220281007624 72.6923076923077, 17.9286173662281 73.49112426035504, 16.017524472530773 74.28994082840237, 23.301203675755204 75.0887573964497, 13.890745437689484 75.88757396449704, 19.56871967355945 76.68639053254438, 16.955477873254058 77.48520710059172, 16.73384572865852 78.28402366863905, 18.596764520998974 79.0828402366864, 14.337662386508294 79.88165680473374, 18.481881345675156 80.68047337278107, 15.551895971519903 81.4792899408284, 17.50400666326631 82.27810650887574, 13.044456822105852 83.07692307692308, 27.176467853369353 83.87573964497041, 13.191077285710778 84.67455621301775, 18.940374408562487 85.4733727810651, 24.09818168040891 86.27218934911244, 20.75692184075159 87.07100591715975, 20.342243672899503 87.8698224852071, 19.701659624868665 88.66863905325444, 18.017056026415236 89.46745562130178, 20.937289683079037 90.26627218934911, 36.15506557827848 91.06508875739645, 17.89769846587408 91.8639053254438, 40.17474605617901 92.66272189349112, 21.863982881655588 93.46153846153845, 24.037778778438014 94.2603550295858, 22.654015226044 95.05917159763314, 27.672257911711256 95.85798816568047, 28.44673512271218 96.65680473372781, 16.80533677023151 97.45562130177515, 15.813937381983099 98.2544378698225, 24.09706011320312 99.05325443786982, 15.45351970128977 99.85207100591715, 29.427894956064087 100.6508875739645, 38.409593406626705 101.44970414201183, 23.530231618228036 102.24852071005917, 27.84975473282304 103.04733727810651, 17.95609677215545 103.84615384615385, 27.96951378241715 104.64497041420118, 12.079775459734197 105.44378698224853, 20.51631931419259 106.24260355029585, 18.410169283022185 107.0414201183432, 27.741289119229606 107.84023668639053, 26.06847617698964 108.63905325443787, 16.733777916098894 109.43786982248521, 22.890264869199246 110.23668639053254, 27.161416508641455 111.03550295857988, 33.15443409759717 111.83431952662723, 20.248656766234387 112.63313609467457, 25.45291557235364 113.43195266272188, 28.48808091313607 114.23076923076923, 29.284921579603484 115.02958579881657, 21.329497131487894 115.82840236686391, 18.81590236331446 116.62721893491124, 24.149668751668514 117.42603550295858, 23.29364061864789 118.22485207100593, 25.854242867621114 119.02366863905324, 26.920183695219112 119.82248520710058, 25.368985706810843 120.62130177514793, 21.409937176134168 121.42011834319527, 19.432514073895863 122.2189349112426, 33.891296384608495 123.01775147928994, 28.040923951264844 123.81656804733728, 24.083742362383244 124.61538461538463, 8.865258471427113 125.41420118343194, 31.080060595147213 126.21301775147928, 34.13707371248877 127.01183431952663, 26.484865692525396 127.81065088757396, 31.18794495692195 128.60946745562129, 25.60801077921248 129.40828402366864, 29.009966452874696 130.20710059171597, 25.97309681589199 131.0059171597633, 28.489694855656168 131.80473372781066, 24.910832570482746 132.60355029585799, 26.17132286018081 133.40236686390534, 22.36026851153468 134.20118343195267, 21.535782424444612" fill="none" stroke="#ff3a33" stroke-width="1.25"/>

</svg>