<?xml version="1.0" standalone="no"?>
<!DOCTYPE svg PUBLIC "-//W3C//DTD SVG 1.1//EN" "http://www.w3.org/Graphics/SVG/1.1/DTD/svg11.dtd">

<svg width="135" height="50" viewBox="0 0 135 50" preserveAspectRatio="none" 
  xmlns="http://www.w3.org/2000/svg"
  xmlns:xlink="http://www.w3.org/1999/xlink">


<polyline points="0.0, 40.96467248768614 0.7988165680473372, 40.44406513178881 1.5976331360946745, 35.74784844995833 2.396449704142012, 34.259040215290284 3.195266272189349, 42.08986187850928 3.994082840236686, 40.11635334122367 4.792899408284024, 41.02876744849341 5.591715976331361, 50.0 6.390532544378698, 45.15583150982281 7.189349112426036, 46.21120576679881 7.988165680473372, 47.50358686226037 8.78698224852071, 43.01332481165971 9.585798816568047, 40.528339118988974 10.384615384615385, 37.19760266268191 11.183431952662723, 36.87054877879686 11.982248520710058, 36.08474879914927 12.781065088757396, 33.91155691129934 13.579881656804734, 35.42638434442408 14.378698224852071, 34.9434959844385 15.177514792899409, 33.68424100156215 15.976331360946745, 32.96511980161348 16.775147928994084, 37.37601342133782 17.57396449704142, 42.16597520885023 18.37278106508876, 43.22590369726454 19.171597633136095, 49.626363039694546 19.970414201183434, 47.13632157424429 20.76923076923077, 42.22352435600477 21.56804733727811, 39.5159159074784 22.366863905325445, 40.297361223891976 23.16568047337278, 31.070896595759343 23.964497041420117, 37.26813931311977 24.763313609467456, 39.16017729575295 25.562130177514792, 29.49133509786422 26.36094674556213, 30.69843842673884 27.159763313609467, 23.327762930860303 27.958579881656807, 19.8943130084553 28.757396449704142, 22.620050616980425 29.55621301775148, 21.861722017334625 30.355029585798817, 18.028953024786194 31.153846153846157, 18.71993711830293 31.95266272189349, 15.361806299846354 32.751479289940825, 17.837653751827183 33.55029585798817, 20.01977454708438 34.349112426035504, 16.366955189392094 35.14792899408284, 20.50993392162638 35.94674556213018, 18.396354214782072 36.74556213017752, 19.196002267779992 37.54437869822485, 20.39378200099369 38.34319526627219, 22.93555012061 39.142011834319526, 19.068573000561244 39.94082840236687, 21.432590312456213 40.7396449704142, 19.354952270919554 41.53846153846154, 10.85452868959619 42.337278106508876, 16.90348039834106 43.13609467455622, 16.14581694529992 43.93491124260355, 16.930611633628978 44.73372781065089, 15.135587137910916 45.532544378698226, 13.610945751814516 46.33136094674556, 14.004238013179462 47.1301775147929, 17.560002395367903 47.928994082840234, 13.902194974698597 48.72781065088758, 20.2520937445466 49.52662721893491, 19.492044808580072 50.32544378698225, 16.595157447635707 51.124260355029584, 19.73355350078955 51.92307692307693, 15.068117675739243 52.72189349112426, 14.86705405698719 53.5207100591716, 0.0 54.319526627218934, 3.7233751357378497 55.11834319526627, 4.106515456358275 55.91715976331361, 5.742536916055862 56.71597633136094, 5.210587181288385 57.514792899408285, 8.366834940570198 58.31360946745562, 8.70330056666863 59.11242603550296, 6.484466408417388 59.91124260355029, 10.325839400476125 60.710059171597635, 9.967615154100566 61.50887573964497, 20.096254329359873 62.307692307692314, 17.387154902885758 63.10650887573964, 16.621823534166662 63.90532544378698, 18.60430126661577 64.70414201183432, 21.664742466572413 65.50295857988165, 19.909157355601366 66.30177514792899, 21.237207449679723 67.10059171597634, 21.9202137463623 67.89940828402366, 21.072994937190618 68.69822485207101, 22.346587666284563 69.49704142011834, 19.566661517230784 70.29585798816568, 19.99761869541561 71.09467455621302, 17.886504532224425 71.89349112426036, 18.203821417732158 72.6923076923077, 19.249725385685064 73.49112426035504, 9.65246052496286 74.28994082840237, 16.399253273235608 75.0887573964497, 14.695062059885231 75.88757396449704, 11.468093727123621 76.68639053254438, 11.438892791569335 77.48520710059172, 12.440377629258112 78.28402366863905, 13.662438372161375 79.0828402366864, 14.430069728033116 79.88165680473374, 15.971127630845302 80.68047337278107, 15.239384375007289 81.4792899408284, 18.553653890814235 82.27810650887574, 18.01705026109539 83.07692307692308, 18.47648593026863 83.87573964497041, 26.70915287469905 84.67455621301775, 27.13921314549798 85.4733727810651, 19.371704841635385 86.27218934911244, 21.81901795935283 87.07100591715975, 24.43617423160668 87.8698224852071, 25.306518171295387 88.66863905325444, 25.407944823413963 89.46745562130178, 27.204609863539712 90.26627218934911, 34.352241099534155 91.06508875739645, 27.577405119637483 91.8639053254438, 37.88487567987315 92.66272189349112, 37.048393356370276 93.46153846153845, 35.556773668583006 94.2603550295858, 33.79456920896028 95.05917159763314, 34.05505967828605 95.85798816568047, 35.54836135199434 96.65680473372781, 34.43728466715995 97.45562130177515, 11.674771603928448 98.2544378698225, 10.74979366768402 99.05325443786982, 8.38096759842216 99.85207100591715, 8.968451256494411 100.6508875739645, 10.266570563814819 101.44970414201183, 9.885529878873255 102.24852071005917, 16.645998662046736 103.04733727810651, 16.09508087750682 103.84615384615385, 14.179964243519263 104.64497041420118, 10.373508251600304 105.44378698224853, 6.171644946487522 106.24260355029585, 7.700122499574151 107.0414201183432, 10.059661720919504 107.84023668639053, 8.820430232632184 108.63905325443787, 7.047749800584782 109.43786982248521, 5.425276312007861 110.23668639053254, 3.981137032502059 111.03550295857988, 10.633922433884685 111.83431952662723, 11.156921974229483 112.63313609467457, 12.872228771270056 113.43195266272188, 17.551280530718735 114.23076923076923, 17.85872799605045 115.02958579881657, 15.912446139569742 115.82840236686391, 18.48447192667893 116.62721893491124, 22.006928738272173 117.42603550295858, 27.07556388363162 118.22485207100593, 25.48773302696366 119.02366863905324, 24.61232748408784 119.82248520710058, 22.081240592069705 120.62130177514793, 21.690443309043854 121.42011834319527, 21.043249356020457 122.2189349112426, 24.73747319963228 123.01775147928994, 20.408446430401437 123.81656804733728, 26.447094356087277 124.61538461538463, 26.255055576078203 125.41420118343194, 26.433557894701853 126.21301775147928, 23.331677949795502 127.01183431952663, 26.380119248174484 127.81065088757396, 30.050191875789732 128.60946745562129, 25.84972148816599 129.40828402366864, 17.7419515762155 130.20710059171597, 22.90009398077482 131.0059171597633, 20.171375585277474 131.80473372781066, 19.198845791826287 132.60355029585799, 15.604926262702879 133.40236686390534, 7.626778313979786 134.20118343195267, 9.97749565981945" fill="none" stroke="#32ca5b" stroke-width="1.25"/>

</svg>