<?xml version="1.0" standalone="no"?>
<!DOCTYPE svg PUBLIC "-//W3C//DTD SVG 1.1//EN" "http://www.w3.org/Graphics/SVG/1.1/DTD/svg11.dtd">

<svg width="135" height="50" viewBox="0 0 135 50" preserveAspectRatio="none" 
  xmlns="http://www.w3.org/2000/svg"
  xmlns:xlink="http://www.w3.org/1999/xlink">


<polyline points="0.0, 50.0 0.7988165680473372, 49.96032373261291 1.5976331360946745, 48.81151157127496 2.396449704142012, 47.565242561390534 3.195266272189349, 47.422111597858816 3.994082840236686, 46.55780126896608 4.792899408284024, 46.841714006210864 5.591715976331361, 47.420049690633874 6.390532544378698, 47.412297615451685 7.189349112426036, 46.75987112538065 7.988165680473372, 42.896450171069475 8.78698224852071, 37.387512818214766 9.585798816568047, 35.33342800381896 10.384615384615385, 34.80598549967367 11.183431952662723, 35.516108065841564 11.982248520710058, 36.818224391171164 12.781065088757396, 31.003301129792533 13.579881656804734, 32.45602228809283 14.378698224852071, 30.499159299147532 15.177514792899409, 29.44743378497286 15.976331360946745, 31.49004087635107 16.775147928994084, 31.06878540114357 17.57396449704142, 32.196708982117606 18.37278106508876, 33.12355568874432 19.171597633136095, 34.13486862392826 19.970414201183434, 32.40742106104545 20.76923076923077, 34.28710346355368 21.56804733727811, 32.65459895700455 22.366863905325445, 32.86950336235942 23.16568047337278, 33.59207948620672 23.964497041420117, 33.843347460592724 24.763313609467456, 34.28182186891043 25.562130177514792, 34.815008495890936 26.36094674556213, 34.89264342662303 27.159763313609467, 34.71161913263375 27.958579881656807, 33.830041181114765 28.757396449704142, 34.12960807372666 29.55621301775148, 34.176053860155584 30.355029585798817, 34.518356480553955 31.153846153846157, 34.68109600131203 31.95266272189349, 34.59746245651076 32.751479289940825, 34.78087626533935 33.55029585798817, 34.6013020914915 34.349112426035504, 35.95564788712529 35.14792899408284, 36.28518426579744 35.94674556213018, 36.728295752755834 36.74556213017752, 36.18695677743806 37.54437869822485, 36.10570266258422 38.34319526627219, 36.28713708662662 39.142011834319526, 36.00889434747796 39.94082840236687, 36.56090005433989 40.7396449704142, 36.392964444141846 41.53846153846154, 36.63843305049752 42.337278106508876, 36.51563874027205 43.13609467455622, 36.37664289082389 43.93491124260355, 36.18039694279977 44.73372781065089, 36.138751495170446 45.532544378698226, 35.801256276883805 46.33136094674556, 35.69795281056395 47.1301775147929, 35.95965929244084 47.928994082840234, 34.20945633737518 48.72781065088758, 35.21975174229748 49.52662721893491, 34.7006067988777 50.32544378698225, 33.99111711762322 51.124260355029584, 33.397285209815806 51.92307692307693, 32.69199689950591 52.72189349112426, 32.00058519831277 53.5207100591716, 33.173103706064836 54.319526627218934, 32.336554616951865 55.11834319526627, 32.753091042533775 55.91715976331361, 32.75198815580309 56.71597633136094, 30.824421264442588 57.514792899408285, 29.00451320041766 58.31360946745562, 27.814099955704197 59.11242603550296, 26.0735142343646 59.91124260355029, 26.26752938512959 60.710059171597635, 25.74687233594784 61.50887573964497, 25.552033374702848 62.307692307692314, 25.998296321678794 63.10650887573964, 26.26800433250095 63.90532544378698, 27.226681073647423 64.70414201183432, 27.045122496723195 65.50295857988165, 27.296065638241174 66.30177514792899, 27.960986462225573 67.10059171597634, 27.979415578200438 67.89940828402366, 28.285572512754246 68.69822485207101, 28.620444247395966 69.49704142011834, 28.269499632010763 70.29585798816568, 28.040490269902097 71.09467455621302, 27.8764849655284 71.89349112426036, 26.456277775297828 72.6923076923077, 28.129175400908835 73.49112426035504, 28.658677779092685 74.28994082840237, 26.903397453917332 75.0887573964497, 28.234117940253046 75.88757396449704, 28.277562240426747 76.68639053254438, 27.996793235524642 77.48520710059172, 28.079504158884266 78.28402366863905, 28.285909526521003 79.0828402366864, 27.971059036646167 79.88165680473374, 29.573020358912505 80.68047337278107, 27.75162922589867 81.4792899408284, 27.615771503820945 82.27810650887574, 28.868869076771613 83.07692307692308, 30.552219298524573 83.87573964497041, 29.696525987226295 84.67455621301775, 30.310403826692756 85.4733727810651, 29.351054574214945 86.27218934911244, 29.48534639355689 87.07100591715975, 29.28425207234681 87.8698224852071, 29.768906765133003 88.66863905325444, 29.789270101906084 89.46745562130178, 29.691419908192728 90.26627218934911, 31.296639083784623 91.06508875739645, 29.554179231025678 91.8639053254438, 31.68764129169362 92.66272189349112, 28.020565803778645 93.46153846153845, 26.491033224566944 94.2603550295858, 21.2833658490739 95.05917159763314, 19.417644851064605 95.85798816568047, 16.96880629179391 96.65680473372781, 17.111666373474414 97.45562130177515, 19.55936730308269 98.2544378698225, 18.791508176861292 99.05325443786982, 15.206378121664619 99.85207100591715, 18.15025056619087 100.6508875739645, 17.475548473691653 101.44970414201183, 17.945596154285763 102.24852071005917, 17.204795582707728 103.04733727810651, 17.032498176268987 103.84615384615385, 18.559172609153013 104.64497041420118, 19.60966978694775 105.44378698224853, 19.14068859704841 106.24260355029585, 18.964206670031526 107.0414201183432, 19.484091497154214 107.84023668639053, 20.12725680725366 108.63905325443787, 20.495040058914306 109.43786982248521, 21.842497436457673 110.23668639053254, 21.249658955488133 111.03550295857988, 19.15325063482911 111.83431952662723, 19.94644068597855 112.63313609467457, 19.86685773788696 113.43195266272188, 19.685017872335546 114.23076923076923, 17.831103607552336 115.02958579881657, 18.299913322989276 115.82840236686391, 19.135024958812703 116.62721893491124, 16.88533737974736 117.42603550295858, 19.228501224823297 118.22485207100593, 15.726223132469066 119.02366863905324, 15.899290376411557 119.82248520710058, 16.507312164673817 120.62130177514793, 15.114716490360605 121.42011834319527, 12.518375571689374 122.2189349112426, 15.90211367185427 123.01775147928994, 11.108837205141208 123.81656804733728, 13.584351713800617 124.61538461538463, 9.19282524582332 125.41420118343194, 8.24541214552498 126.21301775147928, 8.084835122748006 127.01183431952663, 7.481695956338473 127.81065088757396, 6.628285693908818 128.60946745562129, 7.814424114270595 129.40828402366864, 5.123646414901529 130.20710059171597, 3.3093658015252374 131.0059171597633, 3.0410756194401425 131.80473372781066, 2.512628642496521 132.60355029585799, 0.0 133.40236686390534, 2.1623377846896252 134.20118343195267, 6.002591712698227" fill="none" stroke="#32ca5b" stroke-width="1.25"/>

</svg>