<?xml version="1.0" standalone="no"?>
<!DOCTYPE svg PUBLIC "-//W3C//DTD SVG 1.1//EN" "http://www.w3.org/Graphics/SVG/1.1/DTD/svg11.dtd">

<svg width="135" height="50" viewBox="0 0 135 50" preserveAspectRatio="none" 
  xmlns="http://www.w3.org/2000/svg"
  xmlns:xlink="http://www.w3.org/1999/xlink">


<polyline points="0.0, 47.56355842423739 0.7988165680473372, 46.82773715062399 1.5976331360946745, 45.144449174931474 2.396449704142012, 45.50367411312733 3.195266272189349, 46.83163345642049 3.994082840236686, 46.31209748254834 4.792899408284024, 45.74095467041822 5.591715976331361, 48.42732305280292 6.390532544378698, 47.877290607735105 7.189349112426036, 50.0 7.988165680473372, 49.33546705044908 8.78698224852071, 47.72673707222052 9.585798816568047, 45.869347138895975 10.384615384615385, 46.087471892289535 11.183431952662723, 45.751248225387634 11.982248520710058, 45.44312162791005 12.781065088757396, 42.77521028707978 13.579881656804734, 44.38700579953974 14.378698224852071, 44.12549632703858 15.177514792899409, 40.49284079120915 15.976331360946745, 38.323817119457836 16.775147928994084, 39.15913394529964 17.57396449704142, 39.71771802519025 18.37278106508876, 41.42581359601196 19.171597633136095, 43.127819211047694 19.970414201183434, 42.093213735608835 20.76923076923077, 40.89240368442357 21.56804733727811, 41.266434085224475 22.366863905325445, 40.319885207823205 23.16568047337278, 40.08995856000946 23.964497041420117, 40.413600744266944 24.763313609467456, 40.8346325727143 25.562130177514792, 38.270674143485486 26.36094674556213, 37.23616763335056 27.159763313609467, 37.291935572609894 27.958579881656807, 37.93545664344756 28.757396449704142, 37.40822396213231 29.55621301775148, 36.628313625168225 30.355029585798817, 37.44978498627128 31.153846153846157, 37.605745977285316 31.95266272189349, 38.04364903496823 32.751479289940825, 38.82702003039217 33.55029585798817, 39.07467785656325 34.349112426035504, 38.264755524815435 35.14792899408284, 38.98307604086913 35.94674556213018, 39.056755522085886 36.74556213017752, 39.99160846261102 37.54437869822485, 40.10113363896606 38.34319526627219, 40.27933677793189 39.142011834319526, 38.812865636762254 39.94082840236687, 39.325132613216844 40.7396449704142, 38.485361123521464 41.53846153846154, 38.87029453133153 42.337278106508876, 38.42910170852627 43.13609467455622, 38.29980958899538 43.93491124260355, 38.52782290108116 44.73372781065089, 38.48468363169251 45.532544378698226, 37.23900756216736 46.33136094674556, 40.536570833345 47.1301775147929, 41.001083794786304 47.928994082840234, 40.72288916337099 48.72781065088758, 41.51849781542818 49.52662721893491, 41.27398465776897 50.32544378698225, 40.91260458936226 51.124260355029584, 41.67361738767424 51.92307692307693, 40.867256403774846 52.72189349112426, 40.73234628654608 53.5207100591716, 40.126438060664796 54.319526627218934, 40.91003657910861 55.11834319526627, 40.720551334019895 55.91715976331361, 40.83470476109049 56.71597633136094, 40.2313634045212 57.514792899408285, 40.300746286755 58.31360946745562, 39.48204824456155 59.11242603550296, 39.42511689553969 59.91124260355029, 40.0762146249653 60.710059171597635, 39.907029851417036 61.50887573964497, 40.09449397303234 62.307692307692314, 39.59611286607363 63.10650887573964, 38.82586276150575 63.90532544378698, 39.36056365222817 64.70414201183432, 39.40983461808921 65.50295857988165, 39.239096246340196 66.30177514792899, 39.88760563908845 67.10059171597634, 40.342966922764155 67.89940828402366, 39.452360545390846 68.69822485207101, 39.809207753067575 69.49704142011834, 40.02136945070971 70.29585798816568, 39.73495970062904 71.09467455621302, 39.39312204883833 71.89349112426036, 39.82635007001801 72.6923076923077, 40.131747243039435 73.49112426035504, 39.68524653222921 74.28994082840237, 39.22693559588373 75.0887573964497, 39.91687373814716 75.88757396449704, 39.47881248280218 76.68639053254438, 38.89839271424413 77.48520710059172, 38.85481141193598 78.28402366863905, 37.89693860164904 79.0828402366864, 37.73737094491866 79.88165680473374, 39.27898667493038 80.68047337278107, 39.92368178530725 81.4792899408284, 40.559774208018155 82.27810650887574, 41.375755202402836 83.07692307692308, 42.18774543010272 83.87573964497041, 43.2278300100513 84.67455621301775, 43.17585464498439 85.4733727810651, 41.916369381801246 86.27218934911244, 42.38123583604666 87.07100591715975, 42.61207922454165 87.8698224852071, 42.071370349414124 88.66863905325444, 42.72185035361067 89.46745562130178, 43.23195853098645 90.26627218934911, 44.897762028748936 91.06508875739645, 42.815178601911555 91.8639053254438, 45.614560726385626 92.66272189349112, 45.40091135660187 93.46153846153845, 45.310565459977994 94.2603550295858, 44.082025322147345 95.05917159763314, 44.203013463305666 95.85798816568047, 44.02829435642272 96.65680473372781, 43.18586646734413 97.45562130177515, 40.31695181633644 98.2544378698225, 36.84584179826888 99.05325443786982, 34.21131779687739 99.85207100591715, 30.64864848775945 100.6508875739645, 29.812909406049272 101.44970414201183, 29.702973171226375 102.24852071005917, 30.107205453537922 103.04733727810651, 25.93196939339358 103.84615384615385, 28.00818716756801 104.64497041420118, 29.377642087874083 105.44378698224853, 28.011969633499717 106.24260355029585, 25.509729252619127 107.0414201183432, 27.00161059135998 107.84023668639053, 23.87067331801702 108.63905325443787, 24.398360863651305 109.43786982248521, 22.983086879064864 110.23668639053254, 22.998519712955748 111.03550295857988, 23.059650610690515 111.83431952662723, 23.214632893502042 112.63313609467457, 17.768167364062677 113.43195266272188, 23.17828731317736 114.23076923076923, 24.844234929624744 115.02958579881657, 23.173362694371388 115.82840236686391, 25.289890260736403 116.62721893491124, 26.283841774675277 117.42603550295858, 27.863563296336952 118.22485207100593, 26.940727856569612 119.02366863905324, 26.382214102422054 119.82248520710058, 25.869980668751296 120.62130177514793, 24.004194545132165 121.42011834319527, 17.188005209033026 122.2189349112426, 20.26559089823535 123.01775147928994, 10.243873685633982 123.81656804733728, 11.582490169857738 124.61538461538463, 6.816087105580265 125.41420118343194, 0.02291035494845533 126.21301775147928, 0.0 127.01183431952663, 2.851129943755588 127.81065088757396, 4.288151999775202 128.60946745562129, 5.111221738189848 129.40828402366864, 3.5698653949928647 130.20710059171597, 4.999059039516447 131.0059171597633, 7.211550918672318 131.80473372781066, 8.015027136027289 132.60355029585799, 9.631329292258732 133.40236686390534, 9.20027469635338 134.20118343195267, 8.591800641789936" fill="none" stroke="#32ca5b" stroke-width="1.25"/>

</svg>