<?xml version="1.0" standalone="no"?>
<!DOCTYPE svg PUBLIC "-//W3C//DTD SVG 1.1//EN" "http://www.w3.org/Graphics/SVG/1.1/DTD/svg11.dtd">

<svg width="135" height="50" viewBox="0 0 135 50" preserveAspectRatio="none" 
  xmlns="http://www.w3.org/2000/svg"
  xmlns:xlink="http://www.w3.org/1999/xlink">


<polyline points="0.0, 47.0111038873152 0.7988165680473372, 47.17577418395137 1.5976331360946745, 44.20043427872864 2.396449704142012, 44.53473300478563 3.195266272189349, 47.311708611632916 3.994082840236686, 43.495500840603626 4.792899408284024, 42.53833003997099 5.591715976331361, 47.968643591614175 6.390532544378698, 43.639277075414654 7.189349112426036, 50.0 7.988165680473372, 48.262090351875045 8.78698224852071, 43.40296928835807 9.585798816568047, 40.27286489922653 10.384615384615385, 37.216683275115734 11.183431952662723, 34.585422815060674 11.982248520710058, 35.17500270349723 12.781065088757396, 32.31507607358402 13.579881656804734, 35.83414131911738 14.378698224852071, 33.17773064713745 15.177514792899409, 29.63176365640754 15.976331360946745, 28.772853356075213 16.775147928994084, 30.323675667973838 17.57396449704142, 34.94554258605169 18.37278106508876, 36.949360872206505 19.171597633136095, 41.95855132837511 19.970414201183434, 40.235560876721976 20.76923076923077, 36.08482993986519 21.56804733727811, 36.66553939001936 22.366863905325445, 36.2860707349425 23.16568047337278, 37.31516586260972 23.964497041420117, 36.268435307113705 24.763313609467456, 38.31123495850686 25.562130177514792, 35.97382422327109 26.36094674556213, 36.53161833481435 27.159763313609467, 33.21511426165435 27.958579881656807, 32.80800792327725 28.757396449704142, 31.82849617604005 29.55621301775148, 31.090565291875222 30.355029585798817, 32.84771288675498 31.153846153846157, 32.22834000373019 31.95266272189349, 33.00010090407661 32.751479289940825, 34.20614939148179 33.55029585798817, 32.70630603021177 34.349112426035504, 29.17621365565173 35.14792899408284, 32.136684813164266 35.94674556213018, 34.61759877903336 36.74556213017752, 34.93601868035503 37.54437869822485, 36.727640894649696 38.34319526627219, 39.55817406597231 39.142011834319526, 36.70878606017106 39.94082840236687, 38.48652479657738 40.7396449704142, 37.89773975963253 41.53846153846154, 37.71720064355951 42.337278106508876, 37.211677065986684 43.13609467455622, 34.74103332748367 43.93491124260355, 32.87672312218098 44.73372781065089, 32.87932049179435 45.532544378698226, 33.20593662771218 46.33136094674556, 37.12924940061748 47.1301775147929, 36.98089679556807 47.928994082840234, 35.87174273112579 48.72781065088758, 40.33866904802899 49.52662721893491, 41.17985604512133 50.32544378698225, 40.779317577707594 51.124260355029584, 43.060241936794355 51.92307692307693, 40.15942448621896 52.72189349112426, 40.46766230152263 53.5207100591716, 38.77862747268213 54.319526627218934, 39.6418807436915 55.11834319526627, 36.88382027597313 55.91715976331361, 32.936035164659344 56.71597633136094, 31.770622591367758 57.514792899408285, 34.82497591070982 58.31360946745562, 34.02534575001729 59.11242603550296, 33.55555155984625 59.91124260355029, 35.5732365274856 60.710059171597635, 36.649198779411314 61.50887573964497, 38.27172892158418 62.307692307692314, 35.7028764967752 63.10650887573964, 32.45930389875212 63.90532544378698, 32.12182130992079 64.70414201183432, 33.16014696933966 65.50295857988165, 30.29543807139338 66.30177514792899, 29.957020599006444 67.10059171597634, 36.680515423415976 67.89940828402366, 35.5845034442725 68.69822485207101, 36.08599868315924 69.49704142011834, 34.29334661523562 70.29585798816568, 34.987874603398744 71.09467455621302, 34.40777738197577 71.89349112426036, 34.07727751069834 72.6923076923077, 35.15216354199789 73.49112426035504, 34.39691734458211 74.28994082840237, 35.28322815279577 75.0887573964497, 35.988090622515465 75.88757396449704, 36.288234330867056 76.68639053254438, 37.14703433678523 77.48520710059172, 36.67854788799342 78.28402366863905, 33.95932739902188 79.0828402366864, 33.85951615747279 79.88165680473374, 37.43445344600747 80.68047337278107, 35.69461565014592 81.4792899408284, 37.49295042241168 82.27810650887574, 38.47093385952893 83.07692307692308, 38.78606186420798 83.87573964497041, 42.21496792488463 84.67455621301775, 42.33207158041598 85.4733727810651, 38.960340384209935 86.27218934911244, 38.919299076845256 87.07100591715975, 39.52412458651152 87.8698224852071, 37.681934577504606 88.66863905325444, 39.27764778069522 89.46745562130178, 29.85326900806207 90.26627218934911, 20.90129673536985 91.06508875739645, 0.0 91.8639053254438, 2.9150598268494288 92.66272189349112, 6.4143775890780725 93.46153846153845, 3.658966724598008 94.2603550295858, 7.760892046585284 95.05917159763314, 8.971847092159141 95.85798816568047, 6.423280531795053 96.65680473372781, 11.083348256432377 97.45562130177515, 7.078685919296941 98.2544378698225, 5.891424643635852 99.05325443786982, 5.238896287923529 99.85207100591715, 4.9307618126483055 100.6508875739645, 6.218787671000061 101.44970414201183, 2.9656381911780323 102.24852071005917, 12.73829327966698 103.04733727810651, 9.943395658137012 103.84615384615385, 9.39964795411016 104.64497041420118, 12.266208793788246 105.44378698224853, 12.0844001048073 106.24260355029585, 7.728607813014339 107.0414201183432, 11.541792023303804 107.84023668639053, 9.571108867640948 108.63905325443787, 8.439954806909583 109.43786982248521, 5.812982284655552 110.23668639053254, 8.348450907118647 111.03550295857988, 10.219793154183908 111.83431952662723, 12.257871874205705 112.63313609467457, 12.16009254667004 113.43195266272188, 16.456802606797243 114.23076923076923, 20.107878971886688 115.02958579881657, 18.85819482926685 115.82840236686391, 21.868126122725425 116.62721893491124, 23.191044703829032 117.42603550295858, 28.759303645775013 118.22485207100593, 25.284092853177143 119.02366863905324, 24.297210570853558 119.82248520710058, 24.401635264528114 120.62130177514793, 24.71385394487531 121.42011834319527, 22.283740721549215 122.2189349112426, 28.38151827143527 123.01775147928994, 24.591039315266038 123.81656804733728, 32.47455921512782 124.61538461538463, 28.350213752701926 125.41420118343194, 26.015940440170816 126.21301775147928, 22.436413334203113 127.01183431952663, 23.72568492441328 127.81065088757396, 25.292590699253182 128.60946745562129, 24.36812466646389 129.40828402366864, 21.638282971541912 130.20710059171597, 24.410518317406087 131.0059171597633, 20.103078045696112 131.80473372781066, 17.649962956673832 132.60355029585799, 20.79613711282775 133.40236686390534, 22.798213946207945 134.20118343195267, 18.58776911515931" fill="none" stroke="#32ca5b" stroke-width="1.25"/>

</svg>