<?xml version="1.0" standalone="no"?>
<!DOCTYPE svg PUBLIC "-//W3C//DTD SVG 1.1//EN" "http://www.w3.org/Graphics/SVG/1.1/DTD/svg11.dtd">

<svg width="135" height="50" viewBox="0 0 135 50" preserveAspectRatio="none" 
  xmlns="http://www.w3.org/2000/svg"
  xmlns:xlink="http://www.w3.org/1999/xlink">


<polyline points="0.0, 10.526226891207354 0.7988165680473372, 14.407726056583412 1.5976331360946745, 5.7419544585641 2.396449704142012, 0.0 3.195266272189349, 8.517113055204256 3.994082840236686, 7.199150515173162 4.792899408284024, 7.768529403823293 5.591715976331361, 22.34418591901123 6.390532544378698, 13.442406439248375 7.189349112426036, 22.62494205212535 7.988165680473372, 23.465144751055178 8.78698224852071, 15.79570084909657 9.585798816568047, 19.042678008752542 10.384615384615385, 26.43829267019333 11.183431952662723, 20.637443251742916 11.982248520710058, 19.60397403956208 12.781065088757396, 22.324890924895506 13.579881656804734, 26.900108408750583 14.378698224852071, 27.56823401888653 15.177514792899409, 31.445150444404067 15.976331360946745, 30.652897372265546 16.775147928994084, 31.426776913664273 17.57396449704142, 41.91151040206363 18.37278106508876, 41.602077042278125 19.171597633136095, 50.0 19.970414201183434, 45.82971269297972 20.76923076923077, 41.437157189316196 21.56804733727811, 38.60966504033891 22.366863905325445, 39.63228321773127 23.16568047337278, 39.79266788879727 23.964497041420117, 36.514953990064406 24.763313609467456, 42.348623368928315 25.562130177514792, 41.88210772199573 26.36094674556213, 36.46230313025809 27.159763313609467, 32.199652231582775 27.958579881656807, 38.36215945500045 28.757396449704142, 36.58450177962136 29.55621301775148, 38.39793138952692 30.355029585798817, 39.75120228392919 31.153846153846157, 38.87601996427214 31.95266272189349, 41.05196948879904 32.751479289940825, 42.26449636385698 33.55029585798817, 39.274383208296506 34.349112426035504, 38.06301055586918 35.14792899408284, 30.404126977178898 35.94674556213018, 21.98354004833647 36.74556213017752, 22.44363011628836 37.54437869822485, 26.348168733908317 38.34319526627219, 28.295281970687782 39.142011834319526, 24.992786246811193 39.94082840236687, 25.241313447466524 40.7396449704142, 24.470468742286897 41.53846153846154, 23.83152816265061 42.337278106508876, 20.545330436099032 43.13609467455622, 15.33585551779312 43.93491124260355, 15.472285890609893 44.73372781065089, 9.735627890389466 45.532544378698226, 7.064763368715007 46.33136094674556, 17.891231886873516 47.1301775147929, 15.746268536960498 47.928994082840234, 12.589038447109974 48.72781065088758, 13.525973518995817 49.52662721893491, 16.57459808393838 50.32544378698225, 11.29996445343613 51.124260355029584, 18.107744243329634 51.92307692307693, 15.44595798495338 52.72189349112426, 15.067467580151037 53.5207100591716, 7.902757749552947 54.319526627218934, 10.850105352906663 55.11834319526627, 12.709282975369979 55.91715976331361, 8.982369344650097 56.71597633136094, 11.197362438227408 57.514792899408285, 13.481979657940887 58.31360946745562, 13.418377136716773 59.11242603550296, 14.956290886691487 59.91124260355029, 16.639554171474376 60.710059171597635, 19.802623318767925 61.50887573964497, 20.78983146099395 62.307692307692314, 20.74905992079358 63.10650887573964, 19.65424576802243 63.90532544378698, 19.682098891189757 64.70414201183432, 18.829190558800864 65.50295857988165, 19.303657113667423 66.30177514792899, 13.258252047150412 67.10059171597634, 12.667702701950931 67.89940828402366, 15.237182415840985 68.69822485207101, 16.172393124073356 69.49704142011834, 14.375288373239533 70.29585798816568, 15.10533196208082 71.09467455621302, 13.655208262743082 71.89349112426036, 16.75899306391642 72.6923076923077, 20.601666105881954 73.49112426035504, 17.736791553035538 74.28994082840237, 20.824033452483924 75.0887573964497, 20.773133274133624 75.88757396449704, 18.34395085579484 76.68639053254438, 16.37970465718207 77.48520710059172, 16.096190574864703 78.28402366863905, 17.37790918539863 79.0828402366864, 17.378898374608813 79.88165680473374, 21.223436274294553 80.68047337278107, 21.285142166472927 81.4792899408284, 24.86918098519238 82.27810650887574, 26.58953220545337 83.07692307692308, 30.36212175054188 83.87573964497041, 29.249227871037718 84.67455621301775, 28.87821327514841 85.4733727810651, 27.04570964515084 86.27218934911244, 26.546294466733038 87.07100591715975, 25.470078017458718 87.8698224852071, 25.79088901149389 88.66863905325444, 27.293665495822335 89.46745562130178, 28.70950410169292 90.26627218934911, 34.03677336915354 91.06508875739645, 31.344545745716246 91.8639053254438, 40.3701403039983 92.66272189349112, 40.1202276696646 93.46153846153845, 38.848366636334006 94.2603550295858, 37.10886046126664 95.05917159763314, 35.632969891856966 95.85798816568047, 35.53692701664473 96.65680473372781, 32.20084624076449 97.45562130177515, 18.508829426070573 98.2544378698225, 21.823970936132913 99.05325443786982, 20.30102315996204 99.85207100591715, 22.71654414706841 100.6508875739645, 24.06344455159389 101.44970414201183, 22.597637410807014 102.24852071005917, 29.409539523382723 103.04733727810651, 28.72219801076993 103.84615384615385, 30.149492594492994 104.64497041420118, 33.970220504787726 105.44378698224853, 31.57454658374758 106.24260355029585, 31.004173578756788 107.0414201183432, 32.672779973441635 107.84023668639053, 31.82891369085455 108.63905325443787, 28.205156534429477 109.43786982248521, 29.32914381463397 110.23668639053254, 24.608835537840424 111.03550295857988, 24.44022270770059 111.83431952662723, 26.358654754912976 112.63313609467457, 26.67155882433804 113.43195266272188, 28.80012878290238 114.23076923076923, 29.380497642378202 115.02958579881657, 28.663483872707136 115.82840236686391, 31.413455874055234 116.62721893491124, 32.9679732896774 117.42603550295858, 34.52154260610709 118.22485207100593, 33.72619078249207 119.02366863905324, 32.19661669681941 119.82248520710058, 32.8425133881208 120.62130177514793, 32.150668401706575 121.42011834319527, 33.57976044349718 122.2189349112426, 35.73223779823086 123.01775147928994, 34.17200327193861 123.81656804733728, 40.32319806722144 124.61538461538463, 37.17097386471251 125.41420118343194, 37.47520812155139 126.21301775147928, 37.0067939039962 127.01183431952663, 39.08484968834469 127.81065088757396, 38.470411826464506 128.60946745562129, 37.04425286152955 129.40828402366864, 35.26132210964373 130.20710059171597, 36.476928691691114 131.0059171597633, 32.627336219089656 131.80473372781066, 32.31048490689365 132.60355029585799, 29.850305033969864 133.40236686390534, 29.015464463898606 134.20118343195267, 33.533733438129765" fill="none" stroke="#ff3a33" stroke-width="1.25"/>

</svg>