<?xml version="1.0" standalone="no"?>
<!DOCTYPE svg PUBLIC "-//W3C//DTD SVG 1.1//EN" "http://www.w3.org/Graphics/SVG/1.1/DTD/svg11.dtd">

<svg width="135" height="50" viewBox="0 0 135 50" preserveAspectRatio="none" 
  xmlns="http://www.w3.org/2000/svg"
  xmlns:xlink="http://www.w3.org/1999/xlink">


<polyline points="0.0, 49.979268434611576 0.7988165680473372, 50.0 1.5976331360946745, 47.81545201516453 2.396449704142012, 48.31570361782072 3.195266272189349, 47.326304914625105 3.994082840236686, 47.69112593099297 4.792899408284024, 46.44459424337318 5.591715976331361, 40.99286520848825 6.390532544378698, 42.30630537162081 7.189349112426036, 39.91064197447382 7.988165680473372, 38.03940415382403 8.78698224852071, 36.54645193668458 9.585798816568047, 32.47091192561981 10.384615384615385, 31.821152093280197 11.183431952662723, 31.720764408045525 11.982248520710058, 31.703091753940317 12.781065088757396, 31.771601573363924 13.579881656804734, 30.77524208967469 14.378698224852071, 28.95832692766688 15.177514792899409, 31.2269925531358 15.976331360946745, 32.80843892276618 16.775147928994084, 34.218434558417336 17.57396449704142, 35.381474944489774 18.37278106508876, 35.13013935896075 19.171597633136095, 36.99395127401235 19.970414201183434, 32.76637458305823 20.76923076923077, 31.999649150504933 21.56804733727811, 31.11483288116432 22.366863905325445, 32.743124394047655 23.16568047337278, 32.723125951839464 23.964497041420117, 33.683666911124135 24.763313609467456, 32.58803055934393 25.562130177514792, 31.22328033583373 26.36094674556213, 31.050826474747616 27.159763313609467, 27.618275027329354 27.958579881656807, 25.748288290699517 28.757396449704142, 27.426678203467077 29.55621301775148, 28.166731595477245 30.355029585798817, 26.414570750273636 31.153846153846157, 23.93593815868619 31.95266272189349, 23.688227314375105 32.751479289940825, 25.043945011915213 33.55029585798817, 20.43282290103752 34.349112426035504, 24.950545704710812 35.14792899408284, 25.42117488159577 35.94674556213018, 25.735150637449706 36.74556213017752, 26.625803122330748 37.54437869822485, 26.729392205100666 38.34319526627219, 26.527981623568415 39.142011834319526, 26.223099138910776 39.94082840236687, 26.476486691930525 40.7396449704142, 23.82555973733528 41.53846153846154, 22.35200202901497 42.337278106508876, 21.619995422674737 43.13609467455622, 21.239554379995084 43.93491124260355, 17.394683779178685 44.73372781065089, 16.56518472431386 45.532544378698226, 19.950908433351117 46.33136094674556, 21.392336539925665 47.1301775147929, 20.43923491722195 47.928994082840234, 22.67647404816643 48.72781065088758, 24.67671287157526 49.52662721893491, 23.63018907673126 50.32544378698225, 24.283274220953263 51.124260355029584, 21.967384562552887 51.92307692307693, 22.772126960539104 52.72189349112426, 21.761606757847943 53.5207100591716, 25.097071631804774 54.319526627218934, 24.541202669288143 55.11834319526627, 24.161353528882813 55.91715976331361, 23.676957271478123 56.71597633136094, 24.125408750195742 57.514792899408285, 24.16852823048239 58.31360946745562, 24.46592633907413 59.11242603550296, 22.604580341670225 59.91124260355029, 23.871292500657272 60.710059171597635, 23.78187390000452 61.50887573964497, 23.91828786035251 62.307692307692314, 21.131377669242436 63.10650887573964, 19.32240189947448 63.90532544378698, 19.705300559852216 64.70414201183432, 21.995226961842345 65.50295857988165, 21.784091736478274 66.30177514792899, 23.93697990849848 67.10059171597634, 24.61282358751676 67.89940828402366, 24.410617239207987 68.69822485207101, 24.911976929009157 69.49704142011834, 23.380301723450938 70.29585798816568, 23.861395323019657 71.09467455621302, 24.685869016982537 71.89349112426036, 24.25566491057399 72.6923076923077, 24.066614750049578 73.49112426035504, 23.131495870149692 74.28994082840237, 24.61790844489449 75.0887573964497, 24.330851574292687 75.88757396449704, 24.43675375930767 76.68639053254438, 24.83896652003731 77.48520710059172, 24.023227746827207 78.28402366863905, 21.856484098944925 79.0828402366864, 21.277928112874374 79.88165680473374, 23.725977399132773 80.68047337278107, 23.38675348435532 81.4792899408284, 24.187388791835666 82.27810650887574, 25.858991009145875 83.07692307692308, 28.729633731556213 83.87573964497041, 30.530281339488074 84.67455621301775, 31.157341927209654 85.4733727810651, 29.71934969018955 86.27218934911244, 29.42621781505207 87.07100591715975, 29.498167516649048 87.8698224852071, 29.69128578528373 88.66863905325444, 29.711986950994117 89.46745562130178, 29.969160662608356 90.26627218934911, 33.871541119378236 91.06508875739645, 29.66270258586377 91.8639053254438, 34.1326234224529 92.66272189349112, 33.74344177637533 93.46153846153845, 31.288402021101813 94.2603550295858, 26.855356550899927 95.05917159763314, 25.531501750486502 95.85798816568047, 26.315120687292293 96.65680473372781, 23.727047426689566 97.45562130177515, 21.84364744650704 98.2544378698225, 19.699891682550966 99.05325443786982, 16.625432840660086 99.85207100591715, 16.72263013928864 100.6508875739645, 17.712408816298286 101.44970414201183, 16.72124279821406 102.24852071005917, 19.927755605248368 103.04733727810651, 19.17803931506531 103.84615384615385, 20.900451610078957 104.64497041420118, 19.22336957990976 105.44378698224853, 20.30526657741654 106.24260355029585, 19.131602314117607 107.0414201183432, 19.639151038316754 107.84023668639053, 19.094268850587852 108.63905325443787, 18.017115795552527 109.43786982248521, 18.749202931110894 110.23668639053254, 16.82097171053832 111.03550295857988, 15.883271837093831 111.83431952662723, 18.4954364329839 112.63313609467457, 17.242042850504376 113.43195266272188, 18.79395726635405 114.23076923076923, 18.73233876448135 115.02958579881657, 20.08635548046566 115.82840236686391, 20.56604952438348 116.62721893491124, 22.170812503522875 117.42603550295858, 25.48637210258791 118.22485207100593, 23.85920425433054 119.02366863905324, 24.105420939700807 119.82248520710058, 25.354542959392262 120.62130177514793, 24.400849781291306 121.42011834319527, 23.518462562250324 122.2189349112426, 25.51445900629627 123.01775147928994, 23.599404724054697 123.81656804733728, 27.36565046530047 124.61538461538463, 25.22027839267954 125.41420118343194, 23.194857693187327 126.21301775147928, 20.145798119582913 127.01183431952663, 20.877702089021657 127.81065088757396, 20.741714259911237 128.60946745562129, 18.886603778321902 129.40828402366864, 18.732650463784147 130.20710059171597, 19.70969437020507 131.0059171597633, 17.783540730437426 131.80473372781066, 17.284739871025774 132.60355029585799, 13.081113422874546 133.40236686390534, 10.689997218986882 134.20118343195267, 0.0" fill="none" stroke="#32ca5b" stroke-width="1.25"/>

</svg>