<?xml version="1.0" standalone="no"?>
<!DOCTYPE svg PUBLIC "-//W3C//DTD SVG 1.1//EN" "http://www.w3.org/Graphics/SVG/1.1/DTD/svg11.dtd">

<svg width="135" height="50" viewBox="0 0 135 50" preserveAspectRatio="none" 
  xmlns="http://www.w3.org/2000/svg"
  xmlns:xlink="http://www.w3.org/1999/xlink">


<polyline points="0.0, 49.519623361040026 0.7988165680473372, 49.043155101275644 1.5976331360946745, 48.42473762058111 2.396449704142012, 48.87184852247405 3.195266272189349, 50.0 3.994082840236686, 49.092175788124756 4.792899408284024, 48.360714003391195 5.591715976331361, 49.50169302878458 6.390532544378698, 48.356143691262645 7.189349112426036, 47.38699196196035 7.988165680473372, 48.426369512903605 8.78698224852071, 48.68831316323508 9.585798816568047, 48.30610649473614 10.384615384615385, 48.32144132551751 11.183431952662723, 48.35345967445338 11.982248520710058, 48.204147479503234 12.781065088757396, 48.34330755550683 13.579881656804734, 48.75149842908403 14.378698224852071, 48.78594523032736 15.177514792899409, 47.75262284945415 15.976331360946745, 47.75347122292862 16.775147928994084, 48.1379567454476 17.57396449704142, 47.81021145440442 18.37278106508876, 47.28353845688918 19.171597633136095, 48.706127684543546 19.970414201183434, 48.3868898480736 20.76923076923077, 48.850181464579414 21.56804733727811, 48.48907367514681 22.366863905325445, 48.2675421450539 23.16568047337278, 48.835634327886204 23.964497041420117, 48.452883781879905 24.763313609467456, 48.595310409593516 25.562130177514792, 47.800624971147805 26.36094674556213, 48.235459627173924 27.159763313609467, 47.99923550930741 27.958579881656807, 48.1915069762119 28.757396449704142, 47.66315870026399 29.55621301775148, 47.20293712699614 30.355029585798817, 47.16815777702328 31.153846153846157, 47.04780854480439 31.95266272189349, 47.04369847539826 32.751479289940825, 46.828912443530264 33.55029585798817, 46.84078461619017 34.349112426035504, 47.04380793854667 35.14792899408284, 47.56336972110517 35.94674556213018, 47.71462695606151 36.74556213017752, 47.565000392163604 37.54437869822485, 47.251083546807294 38.34319526627219, 47.13776515566433 39.142011834319526, 46.114761295094134 39.94082840236687, 46.30865122182875 40.7396449704142, 46.81017178745156 41.53846153846154, 46.55929254385999 42.337278106508876, 46.89294648191414 43.13609467455622, 46.968792061573936 43.93491124260355, 46.655599486583526 44.73372781065089, 46.39634480808955 45.532544378698226, 45.62829981992632 46.33136094674556, 47.14533225497836 47.1301775147929, 46.65927144804368 47.928994082840234, 46.04282043470984 48.72781065088758, 46.14299030916094 49.52662721893491, 45.63348544027437 50.32544378698225, 45.44063936475706 51.124260355029584, 45.11769886988433 51.92307692307693, 44.92283461286867 52.72189349112426, 44.5206335113537 53.5207100591716, 45.48814661989883 54.319526627218934, 45.46003655614748 55.11834319526627, 44.81057445286951 55.91715976331361, 45.08114019401571 56.71597633136094, 44.80604000058601 57.514792899408285, 44.64896635077728 58.31360946745562, 43.714879705798715 59.11242603550296, 43.726458235898704 59.91124260355029, 43.74411775509564 60.710059171597635, 43.524244506923424 61.50887573964497, 43.68116838901406 62.307692307692314, 43.28909806885037 63.10650887573964, 42.67724901437179 63.90532544378698, 42.92970089043623 64.70414201183432, 43.93090433748581 65.50295857988165, 43.208944587705574 66.30177514792899, 43.722984272709326 67.10059171597634, 44.46904928164591 67.89940828402366, 44.13893596154637 68.69822485207101, 44.18699929380051 69.49704142011834, 43.76019883489331 70.29585798816568, 43.78227639690738 71.09467455621302, 43.72350888580165 71.89349112426036, 43.503897855745684 72.6923076923077, 43.954499648820224 73.49112426035504, 44.22457860900583 74.28994082840237, 44.488439945687276 75.0887573964497, 44.3219227529363 75.88757396449704, 44.05352477536227 76.68639053254438, 43.81730170298601 77.48520710059172, 43.83620563768101 78.28402366863905, 43.587019899160325 79.0828402366864, 43.44109293800481 79.88165680473374, 44.320943628147866 80.68047337278107, 44.03912172249247 81.4792899408284, 44.26769802242608 82.27810650887574, 44.73811632342474 83.07692307692308, 45.47063648350805 83.87573964497041, 45.820514652841425 84.67455621301775, 45.50835535068831 85.4733727810651, 45.05011752875171 86.27218934911244, 44.5670965683458 87.07100591715975, 45.115266824934444 87.8698224852071, 44.92905970900461 88.66863905325444, 44.771123469367105 89.46745562130178, 44.55945365543486 90.26627218934911, 46.01743416029794 91.06508875739645, 44.9223419930843 91.8639053254438, 46.822244297077084 92.66272189349112, 47.040110429400045 93.46153846153845, 46.58434995139301 94.2603550295858, 46.03448867143353 95.05917159763314, 45.76686916074827 95.85798816568047, 45.839262762654435 96.65680473372781, 45.01472766637027 97.45562130177515, 44.35285344185896 98.2544378698225, 44.2127261299706 99.05325443786982, 43.7261030397601 99.85207100591715, 43.303222332201315 100.6508875739645, 43.58796898166181 101.44970414201183, 38.606861951814004 102.24852071005917, 38.465237978793326 103.04733727810651, 36.54111533202596 103.84615384615385, 37.79776721523719 104.64497041420118, 36.83972301441048 105.44378698224853, 36.208468493291726 106.24260355029585, 33.09828192959006 107.0414201183432, 33.7187358882713 107.84023668639053, 32.77887857548181 108.63905325443787, 31.51360396874986 109.43786982248521, 31.15152721915331 110.23668639053254, 31.647113628730516 111.03550295857988, 29.787165387136273 111.83431952662723, 28.86722281350938 112.63313609467457, 28.481719541923052 113.43195266272188, 25.883264092283692 114.23076923076923, 21.017890491659696 115.02958579881657, 18.72181915259449 115.82840236686391, 18.817224115316705 116.62721893491124, 21.91957415622074 117.42603550295858, 24.459821755328235 118.22485207100593, 23.52765791549717 119.02366863905324, 24.11713576628668 119.82248520710058, 23.622807055070535 120.62130177514793, 22.649883589169537 121.42011834319527, 19.37298899313596 122.2189349112426, 20.66134523121654 123.01775147928994, 22.13522369331926 123.81656804733728, 23.73954542050177 124.61538461538463, 21.401317760503467 125.41420118343194, 18.554789309677027 126.21301775147928, 18.05161440848623 127.01183431952663, 18.09537139835025 127.81065088757396, 17.39652743338444 128.60946745562129, 14.958203834926678 129.40828402366864, 9.921630570344854 130.20710059171597, 7.4653570686823585 131.0059171597633, 3.510873781642237 131.80473372781066, 1.3594174224604134 132.60355029585799, 0.7898861239589161 133.40236686390534, 0.0 134.20118343195267, 1.8282759156223338" fill="none" stroke="#32ca5b" stroke-width="1.25"/>

</svg>