<?xml version="1.0" standalone="no"?>
<!DOCTYPE svg PUBLIC "-//W3C//DTD SVG 1.1//EN" "http://www.w3.org/Graphics/SVG/1.1/DTD/svg11.dtd">

<svg width="135" height="50" viewBox="0 0 135 50" preserveAspectRatio="none" 
  xmlns="http://www.w3.org/2000/svg"
  xmlns:xlink="http://www.w3.org/1999/xlink">


<polyline points="0.0, 47.132185019060834 0.7988165680473372, 50.0 1.5976331360946745, 42.42141776457145 2.396449704142012, 39.86261532854684 3.195266272189349, 41.84142384068003 3.994082840236686, 36.79755961266092 4.792899408284024, 30.025229375635465 5.591715976331361, 40.100599137264346 6.390532544378698, 35.39842913225746 7.189349112426036, 45.63298172062614 7.988165680473372, 44.388445503690285 8.78698224852071, 39.52644917230656 9.585798816568047, 37.770840812988006 10.384615384615385, 33.50026904590488 11.183431952662723, 32.41245494818098 11.982248520710058, 31.128984638037743 12.781065088757396, 34.50815399260811 13.579881656804734, 39.36558208501536 14.378698224852071, 39.457119271593925 15.177514792899409, 35.51985608621402 15.976331360946745, 38.47420576818531 16.775147928994084, 44.74240198144602 17.57396449704142, 46.637734783916464 18.37278106508876, 46.15172218009623 19.171597633136095, 49.8263185588226 19.970414201183434, 47.78798629277187 20.76923076923077, 44.207322892515236 21.56804733727811, 44.73389592815218 22.366863905325445, 44.772802473659254 23.16568047337278, 43.66113071777893 23.964497041420117, 45.355886522675256 24.763313609467456, 46.35414090847123 25.562130177514792, 40.112195374115096 26.36094674556213, 42.21016769896117 27.159763313609467, 34.21856506819556 27.958579881656807, 38.56849448587854 28.757396449704142, 31.57141671737665 29.55621301775148, 29.875831868107593 30.355029585798817, 31.463469922878694 31.153846153846157, 22.40724381839257 31.95266272189349, 31.166330226821664 32.751479289940825, 33.00089688972674 33.55029585798817, 32.43133421975982 34.349112426035504, 25.970407154203933 35.14792899408284, 24.809607504991853 35.94674556213018, 25.913143002639856 36.74556213017752, 26.33804520756305 37.54437869822485, 26.57119108788707 38.34319526627219, 27.95983577616845 39.142011834319526, 22.43603012936502 39.94082840236687, 23.162347804881104 40.7396449704142, 19.466197791318635 41.53846153846154, 20.64367227157461 42.337278106508876, 18.794325314434936 43.13609467455622, 18.20046737247387 43.93491124260355, 18.672372543735236 44.73372781065089, 13.18512709816258 45.532544378698226, 12.757220516842022 46.33136094674556, 20.85954034350241 47.1301775147929, 24.702645942781153 47.928994082840234, 16.627576144280376 48.72781065088758, 21.854345535736165 49.52662721893491, 23.170837115121916 50.32544378698225, 21.14584176938563 51.124260355029584, 23.984722059235665 51.92307692307693, 25.63505898592362 52.72189349112426, 27.9945910691293 53.5207100591716, 25.94461135967378 54.319526627218934, 25.707457434745333 55.11834319526627, 22.003804850623727 55.91715976331361, 21.34023330673002 56.71597633136094, 21.70850942273459 57.514792899408285, 23.159283524138523 58.31360946745562, 19.748623867713132 59.11242603550296, 21.695984304576054 59.91124260355029, 22.06468681447872 60.710059171597635, 23.320320799543282 61.50887573964497, 24.3063292319781 62.307692307692314, 23.640239392498337 63.10650887573964, 22.39953206899199 63.90532544378698, 22.903181760421578 64.70414201183432, 24.248045777838982 65.50295857988165, 23.27658186607615 66.30177514792899, 27.77901061620233 67.10059171597634, 28.64044352710138 67.89940828402366, 27.28169261034014 68.69822485207101, 28.74198622077284 69.49704142011834, 25.650745238649986 70.29585798816568, 25.238180187850833 71.09467455621302, 25.539679260287752 71.89349112426036, 24.495407153919817 72.6923076923077, 24.08923475669562 73.49112426035504, 21.210389070779932 74.28994082840237, 22.6715875791785 75.0887573964497, 20.420559845541458 75.88757396449704, 19.543911775268676 76.68639053254438, 19.697293716068078 77.48520710059172, 19.284753099812097 78.28402366863905, 18.774937933732406 79.0828402366864, 17.230760683981778 79.88165680473374, 18.18674519095662 80.68047337278107, 19.259388566169942 81.4792899408284, 20.71594825967247 82.27810650887574, 20.89001351237227 83.07692307692308, 25.8559890495547 83.87573964497041, 26.778684456019402 84.67455621301775, 27.60791833551055 85.4733727810651, 24.532005488349064 86.27218934911244, 24.144603340785377 87.07100591715975, 26.060852689500503 87.8698224852071, 26.04742956356283 88.66863905325444, 26.247842783734686 89.46745562130178, 27.94027820892448 90.26627218934911, 36.19172083684018 91.06508875739645, 28.958094565270198 91.8639053254438, 38.93985782626481 92.66272189349112, 39.17806323935137 93.46153846153845, 37.21248583564467 94.2603550295858, 33.04821822345512 95.05917159763314, 33.579347735570536 95.85798816568047, 34.352090352481454 96.65680473372781, 30.489851875169265 97.45562130177515, 10.513478862420895 98.2544378698225, 9.872407788572849 99.05325443786982, 6.408420353765942 99.85207100591715, 5.7725660126581415 100.6508875739645, 7.242283532492144 101.44970414201183, 1.1898142927868651 102.24852071005917, 7.695798541731287 103.04733727810651, 5.589709440707314 103.84615384615385, 6.379357043205772 104.64497041420118, 4.201335609666886 105.44378698224853, 4.2627169493897155 106.24260355029585, 1.888208597194702 107.0414201183432, 6.15228567905959 107.84023668639053, 6.205685986368232 108.63905325443787, 3.8066818487149052 109.43786982248521, 0.976502739486625 110.23668639053254, 0.0 111.03550295857988, 1.323392060965847 111.83431952662723, 1.0866483104761322 112.63313609467457, 2.920940560916414 113.43195266272188, 5.370086591835111 114.23076923076923, 5.160289108034729 115.02958579881657, 4.316952209244676 115.82840236686391, 6.924063406897848 116.62721893491124, 6.730134163621305 117.42603550295858, 13.792941990472496 118.22485207100593, 10.201857847903026 119.02366863905324, 10.42214850116806 119.82248520710058, 7.52348129919114 120.62130177514793, 8.07995716586143 121.42011834319527, 7.145907854007588 122.2189349112426, 13.435803434462596 123.01775147928994, 12.317702161764418 123.81656804733728, 23.608250919477218 124.61538461538463, 17.517855585931592 125.41420118343194, 16.351583076053526 126.21301775147928, 15.561970673617504 127.01183431952663, 18.68962091974164 127.81065088757396, 19.39774879263968 128.60946745562129, 19.60589524979941 129.40828402366864, 15.114689780756574 130.20710059171597, 13.728814644765402 131.0059171597633, 7.450200806703341 131.80473372781066, 5.846496536470915 132.60355029585799, 4.309066973908572 133.40236686390534, 4.804393695351078 134.20118343195267, 2.8246473646312062" fill="none" stroke="#32ca5b" stroke-width="1.25"/>

</svg>