<?xml version="1.0" standalone="no"?>
<!DOCTYPE svg PUBLIC "-//W3C//DTD SVG 1.1//EN" "http://www.w3.org/Graphics/SVG/1.1/DTD/svg11.dtd">

<svg width="135" height="50" viewBox="0 0 135 50" preserveAspectRatio="none" 
  xmlns="http://www.w3.org/2000/svg"
  xmlns:xlink="http://www.w3.org/1999/xlink">


<polyline points="0.0, 48.520715202314626 0.7988165680473372, 45.1833037331254 1.5976331360946745, 40.05297475480611 2.396449704142012, 42.06375953016295 3.195266272189349, 39.74127049732131 3.994082840236686, 33.7875044908274 4.792899408284024, 44.879754895786746 5.591715976331361, 34.877485745868576 6.390532544378698, 47.67110251321684 7.189349112426036, 41.90511066533096 7.988165680473372, 41.91903218371863 8.78698224852071, 38.69583953194648 9.585798816568047, 37.5496366867355 10.384615384615385, 36.294012090073714 11.183431952662723, 34.200559061907065 11.982248520710058, 37.18564644325761 12.781065088757396, 43.00327921219103 13.579881656804734, 40.863024105296745 14.378698224852071, 38.05533329274425 15.177514792899409, 38.73601180066926 15.976331360946745, 40.39142608740392 16.775147928994084, 47.572768637551874 17.57396449704142, 47.19326316177786 18.37278106508876, 50.0 19.171597633136095, 48.15305243324776 19.970414201183434, 45.135186054774366 20.76923076923077, 44.60428547910432 21.56804733727811, 45.62770693097999 22.366863905325445, 43.93904839602431 23.16568047337278, 45.92383334291783 23.964497041420117, 46.37812465828689 24.763313609467456, 41.49288275503644 25.562130177514792, 42.31273549322116 26.36094674556213, 36.25158936172362 27.159763313609467, 39.3330727626968 27.958579881656807, 33.49917758110824 28.757396449704142, 32.471653323967764 29.55621301775148, 33.8536294972654 30.355029585798817, 26.207164972757347 31.153846153846157, 33.127390660733745 31.95266272189349, 34.16868325535841 32.751479289940825, 34.10236902909728 33.55029585798817, 27.57194600550142 34.349112426035504, 27.665524595196306 35.14792899408284, 28.988478920647538 35.94674556213018, 28.746262693886464 36.74556213017752, 29.71771508788011 37.54437869822485, 30.77655978767534 38.34319526627219, 27.227535374260363 39.142011834319526, 27.219497987433538 39.94082840236687, 23.81924293968474 40.7396449704142, 27.4672967971783 41.53846153846154, 22.253412550400988 42.337278106508876, 22.069516231612965 43.13609467455622, 18.756854223382582 43.93491124260355, 15.619531391298011 44.73372781065089, 13.468773726255826 45.532544378698226, 27.943957167817484 46.33136094674556, 26.84374888812286 47.1301775147929, 18.26621101247551 47.928994082840234, 22.408670495201086 48.72781065088758, 19.506019677953844 49.52662721893491, 21.756475720227606 50.32544378698225, 27.022571846153486 51.124260355029584, 26.11561720152835 51.92307692307693, 29.426792951134175 52.72189349112426, 27.420932625025856 53.5207100591716, 25.617709009465045 54.319526627218934, 28.872364247155552 55.11834319526627, 26.120437125024914 55.91715976331361, 24.12102864966333 56.71597633136094, 29.033871441573627 57.514792899408285, 24.697087171103245 58.31360946745562, 25.28234409759073 59.11242603550296, 30.710215242383292 59.91124260355029, 27.923903022527625 60.710059171597635, 29.612266857636634 61.50887573964497, 27.01561286969451 62.307692307692314, 23.499672319063887 63.10650887573964, 23.816505479767038 63.90532544378698, 27.226170141104266 64.70414201183432, 25.71198360743272 65.50295857988165, 29.710384290831797 66.30177514792899, 32.02005994256514 67.10059171597634, 29.882782908154056 67.89940828402366, 30.268657701215073 68.69822485207101, 26.699697981248015 69.49704142011834, 23.547999557896038 70.29585798816568, 26.99715254750597 71.09467455621302, 26.344225274710148 71.89349112426036, 20.324636285288914 72.6923076923077, 23.12048296025976 73.49112426035504, 27.219722993899527 74.28994082840237, 24.144215387938655 75.0887573964497, 22.276402048133466 75.88757396449704, 23.895424523698264 76.68639053254438, 24.691785998378247 77.48520710059172, 23.36799904624366 78.28402366863905, 20.95691546311982 79.0828402366864, 24.10276545892337 79.88165680473374, 23.51820212840532 80.68047337278107, 22.437304977298147 81.4792899408284, 25.423778819893716 82.27810650887574, 29.011521500555798 83.07692307692308, 29.650515354693923 83.87573964497041, 32.135059030606755 84.67455621301775, 26.242528250697568 85.4733727810651, 31.032457106495308 86.27218934911244, 28.918921731756832 87.07100591715975, 28.311076710630644 87.8698224852071, 29.60981500041018 88.66863905325444, 31.296550143510103 89.46745562130178, 40.76948212511496 90.26627218934911, 32.17189432193971 91.06508875739645, 39.730326911184896 91.8639053254438, 41.189386318052776 92.66272189349112, 38.19253324845478 93.46153846153845, 35.58305828424739 94.2603550295858, 31.74429834366442 95.05917159763314, 36.0554035039163 95.85798816568047, 33.612764080251274 96.65680473372781, 16.79692897676027 97.45562130177515, 17.142234765091196 98.2544378698225, 15.303250624769099 99.05325443786982, 11.104437717792004 99.85207100591715, 10.43750655001979 100.6508875739645, 8.80155415001781 101.44970414201183, 13.031152842557761 102.24852071005917, 11.618730684353618 103.04733727810651, 12.801447957635009 103.84615384615385, 10.723168770436327 104.64497041420118, 11.44179631194119 105.44378698224853, 7.416200540420653 106.24260355029585, 11.608951309919378 107.0414201183432, 10.94007594625395 107.84023668639053, 7.691627969566896 108.63905325443787, 11.201515364037265 109.43786982248521, 5.435265291322684 110.23668639053254, 0.0 111.03550295857988, 8.353105616376816 111.83431952662723, 8.392715239787856 112.63313609467457, 11.827918470913499 113.43195266272188, 12.758793788605285 114.23076923076923, 6.8986210735365 115.02958579881657, 11.991688669216684 115.82840236686391, 12.320565953222653 116.62721893491124, 23.41270708218241 117.42603550295858, 15.833187074114536 118.22485207100593, 16.172484375478536 119.02366863905324, 11.174271073853047 119.82248520710058, 13.344623758906183 120.62130177514793, 12.126226508716387 121.42011834319527, 18.818982343887004 122.2189349112426, 16.619800544410744 123.01775147928994, 28.68205894297659 123.81656804733728, 22.20777927368228 124.61538461538463, 23.148857666084293 125.41420118343194, 17.596282499754803 126.21301775147928, 24.204378262158926 127.01183431952663, 22.76933327134054 127.81065088757396, 23.469094834135326 128.60946745562129, 19.3889409497669 129.40828402366864, 22.405438189861197 130.20710059171597, 14.571142368203576 131.0059171597633, 12.752729033977209 131.80473372781066, 6.4472781742923 132.60355029585799, 13.220905858812127 133.40236686390534, 13.160275216643564 134.20118343195267, 9.896427837160505" fill="none" stroke="#32ca5b" stroke-width="1.25"/>

</svg>