<?xml version="1.0" standalone="no"?>
<!DOCTYPE svg PUBLIC "-//W3C//DTD SVG 1.1//EN" "http://www.w3.org/Graphics/SVG/1.1/DTD/svg11.dtd">

<svg width="135" height="50" viewBox="0 0 135 50" preserveAspectRatio="none" 
  xmlns="http://www.w3.org/2000/svg"
  xmlns:xlink="http://www.w3.org/1999/xlink">


<polyline points="0.0, 16.532762723160857 0.7988165680473372, 22.734466959375645 1.5976331360946745, 24.486549015682037 2.396449704142012, 26.51620525312934 3.195266272189349, 34.78570770739763 3.994082840236686, 22.423844865824925 4.792899408284024, 18.247503310992442 5.591715976331361, 38.130659319606835 6.390532544378698, 30.026402236484 7.189349112426036, 14.575121518033033 7.988165680473372, 19.7426821556389 8.78698224852071, 27.225939122259113 9.585798816568047, 19.891173364844903 10.384615384615385, 29.561642108949076 11.183431952662723, 35.18917554765354 11.982248520710058, 25.41581756818242 12.781065088757396, 18.46553391315843 13.579881656804734, 21.02018173383792 14.378698224852071, 17.391968456737537 15.177514792899409, 19.70604104356132 15.976331360946745, 14.8186086640793 16.775147928994084, 37.7035716465572 17.57396449704142, 23.932835239064644 18.37278106508876, 26.099030400704788 19.171597633136095, 26.597143110757344 19.970414201183434, 19.311434627418382 20.76923076923077, 31.131250152957236 21.56804733727811, 23.008976019435035 22.366863905325445, 19.16253849126291 23.16568047337278, 22.008158645176284 23.964497041420117, 16.6124840058612 24.763313609467456, 26.845702400877176 25.562130177514792, 32.731097774858 26.36094674556213, 31.526816870224017 27.159763313609467, 29.549392736379303 27.958579881656807, 15.209220456138514 28.757396449704142, 12.59990666019672 29.55621301775148, 12.390626778232242 30.355029585798817, 14.215604360217924 31.153846153846157, 9.331166680822598 31.95266272189349, 6.0276993312050875 32.751479289940825, 13.258984329108356 33.55029585798817, 6.4905689601725145 34.349112426035504, 7.091374803094828 35.14792899408284, 9.464109426018188 35.94674556213018, 11.621548305140044 36.74556213017752, 19.702140990335227 37.54437869822485, 29.45919700783235 38.34319526627219, 33.81238002062981 39.142011834319526, 37.751977163492114 39.94082840236687, 38.29237534115221 40.7396449704142, 37.615574986412135 41.53846153846154, 13.08774292617541 42.337278106508876, 17.10176020582984 43.13609467455622, 16.70989261700603 43.93491124260355, 21.23272400078921 44.73372781065089, 28.750013337452245 45.532544378698226, 34.814617904986385 46.33136094674556, 38.265473704366606 47.1301775147929, 33.09252518209385 47.928994082840234, 47.42805921207858 48.72781065088758, 24.78785932076705 49.52662721893491, 12.899363930094177 50.32544378698225, 24.85110583245425 51.124260355029584, 23.89921468799607 51.92307692307693, 22.616573409347225 52.72189349112426, 20.59676206157995 53.5207100591716, 17.7325948676894 54.319526627218934, 16.17126580632342 55.11834319526627, 18.85925293221228 55.91715976331361, 13.602434647252856 56.71597633136094, 14.64137958176384 57.514792899408285, 15.895446724602843 58.31360946745562, 13.962616986324141 59.11242603550296, 17.85066784844673 59.91124260355029, 16.12974596972601 60.710059171597635, 20.838431846287033 61.50887573964497, 17.403195789044332 62.307692307692314, 18.556399146143242 63.10650887573964, 17.35594889360912 63.90532544378698, 18.964016462543544 64.70414201183432, 18.06031160604095 65.50295857988165, 13.841983062869959 66.30177514792899, 15.265680522828017 67.10059171597634, 0.0 67.89940828402366, 14.86509818726077 68.69822485207101, 15.769428311134229 69.49704142011834, 15.340907213264654 70.29585798816568, 16.618648584563193 71.09467455621302, 18.490809868879772 71.89349112426036, 17.457517651484096 72.6923076923077, 17.80592726864066 73.49112426035504, 15.848409062416033 74.28994082840237, 14.6047388966666 75.0887573964497, 14.344266803771898 75.88757396449704, 19.2354187858529 76.68639053254438, 19.997776743452413 77.48520710059172, 20.748095438683556 78.28402366863905, 21.086543885649522 79.0828402366864, 12.780297946685332 79.88165680473374, 16.22191813430677 80.68047337278107, 11.085275154791095 81.4792899408284, 14.95909231879446 82.27810650887574, 8.678604098030917 83.07692307692308, 23.82268462845424 83.87573964497041, 17.847902064843254 84.67455621301775, 16.314005429772834 85.4733727810651, 17.7261065978735 86.27218934911244, 15.648717896027348 87.07100591715975, 18.890355287489538 87.8698224852071, 20.220191405554573 88.66863905325444, 17.65027341552434 89.46745562130178, 21.45557136493782 90.26627218934911, 19.385557091294693 91.06508875739645, 22.991475581278888 91.8639053254438, 27.39296996260217 92.66272189349112, 22.57612519159388 93.46153846153845, 27.431344663951574 94.2603550295858, 24.63747825097557 95.05917159763314, 22.13956441427277 95.85798816568047, 27.77023751065081 96.65680473372781, 20.75314035019751 97.45562130177515, 15.721964501671856 98.2544378698225, 18.87662520888866 99.05325443786982, 24.875489443605364 99.85207100591715, 25.857542576920583 100.6508875739645, 27.58779694655582 101.44970414201183, 19.040530956170354 102.24852071005917, 28.965374786093157 103.04733727810651, 29.15333688091361 103.84615384615385, 35.851323478863065 104.64497041420118, 25.960422236072578 105.44378698224853, 26.615227775342387 106.24260355029585, 28.9225256955269 107.0414201183432, 35.202554483415824 107.84023668639053, 30.869787961689493 108.63905325443787, 26.779501454081295 109.43786982248521, 30.088984249900896 110.23668639053254, 29.885599390543327 111.03550295857988, 31.516278835314697 111.83431952662723, 27.73519285062358 112.63313609467457, 29.227575060258726 113.43195266272188, 27.125537494837097 114.23076923076923, 31.602363339846246 115.02958579881657, 27.221215012277423 115.82840236686391, 24.373127739972613 116.62721893491124, 29.502318418178923 117.42603550295858, 50.0 118.22485207100593, 34.12745150771975 119.02366863905324, 32.963208048838176 119.82248520710058, 32.69543760907894 120.62130177514793, 29.651095423073322 121.42011834319527, 20.244341220341123 122.2189349112426, 37.478931772410945 123.01775147928994, 41.40139310351124 123.81656804733728, 37.85578147718384 124.61538461538463, 28.364775828869487 125.41420118343194, 31.707843478010705 126.21301775147928, 26.523227577081325 127.01183431952663, 25.378063504778183 127.81065088757396, 31.616379997547934 128.60946745562129, 29.658344998508234 129.40828402366864, 25.384571976668358 130.20710059171597, 24.208932588251894 131.0059171597633, 31.661195315046964 131.80473372781066, 26.710507647766 132.60355029585799, 27.970588054245855 133.40236686390534, 23.875585842134424 134.20118343195267, 28.384225360144548" fill="none" stroke="#ff3a33" stroke-width="1.25"/>

</svg>